<?xml version="1.0" encoding="UTF-8"?>
<svg version="1.1" xmlns="http://www.w3.org/2000/svg" width="474" height="316">
<path d="M0 0 C156.42 0 312.84 0 474 0 C474 104.28 474 208.56 474 316 C317.58 316 161.16 316 0 316 C0 211.72 0 107.44 0 0 Z " fill="#FDFDFD" transform="translate(0,0)"/>
<path d="M0 0 C1.11375 0.495 1.11375 0.495 2.25 1 C3.25 7.75 3.25 7.75 3.25 10 C4.91924071 13.04134491 4.91924071 13.04134491 7.25 14 C9.22687156 12.98813199 9.22687156 12.98813199 11.375 11.5625 C16.14126943 8.83238087 18.79232392 8.22033199 24.25 9 C28.33670298 10.38183482 31.30979808 11.7650437 33.95703125 15.2421875 C36.73229052 21.16162267 36.09111691 28.47664926 34.0625 34.5625 C31.39182777 38.15409369 29.3670646 40.49078842 24.87890625 41.5703125 C20.83912089 42.13456187 18.13368508 42.40342145 14.375 40.6875 C13.67375 40.130625 12.9725 39.57375 12.25 39 C10.92391178 38.31903578 9.59313399 37.64669414 8.25 37 C7.59 37.99 6.93 38.98 6.25 40 C4.93 40 3.61 40 2.25 40 C1.36441406 40.23976563 1.36441406 40.23976563 0.4609375 40.484375 C-2.74281837 41.23154068 -5.83963301 41.21065429 -9.125 41.25 C-10.41148437 41.27578125 -11.69796875 41.3015625 -13.0234375 41.328125 C-18.57481856 40.83932415 -21.67727779 39.12148231 -25.5 35.125 C-30.52426242 28.14685775 -30.52462555 21.39500442 -29.75 13 C-27.93534315 6.94770699 -23.14899289 3.09337116 -17.9296875 -0.12109375 C-12.45383651 -2.32909818 -5.57071188 -1.48552317 0 0 Z " fill="#F9FAFA" transform="translate(148.75,139)"/>
<path d="M0 0 C0 1.98 0 3.96 0 6 C0.66 5.67 1.32 5.34 2 5 C2.65555119 2.47266765 2.65555119 2.47266765 3 0 C3.721875 0.350625 4.44375 0.70125 5.1875 1.0625 C8.47912488 2.15970829 9.65387713 1.74358286 13 1 C18.93896255 0.5416237 24.00522996 0.34529022 29 4 C33.03779296 9.51831704 32 12.43635586 32 20 C24.74 20 17.48 20 10 20 C12.16666667 25.83333333 12.16666667 25.83333333 15 27 C17.71760108 27.07181821 20.40859388 27.09299506 23.125 27.0625 C24.25615234 27.05573242 24.25615234 27.05573242 25.41015625 27.04882812 C27.27347127 27.03703499 29.13674555 27.01909942 31 27 C31 28.65 31 30.3 31 32 C28.69812862 33.15093569 27.52110127 33.07776855 24.97265625 32.9921875 C24.18052734 32.97542969 23.38839844 32.95867187 22.57226562 32.94140625 C20.90276675 32.89723274 19.23345719 32.84518298 17.56445312 32.78515625 C16.77103516 32.77097656 15.97761719 32.75679687 15.16015625 32.7421875 C14.43449463 32.7201123 13.70883301 32.69803711 12.96118164 32.67529297 C10.44312338 33.09220041 9.66985596 34.13269184 8 36 C5.9375 36.75 5.9375 36.75 4 37 C3.34 36.67 2.68 36.34 2 36 C2 34.35 2 32.7 2 31 C3.65 31.33 5.3 31.66 7 32 C3.74602492 29.74114676 3.74602492 29.74114676 0 29 C0.33 30.98 0.66 32.96 1 35 C0.34 35 -0.32 35 -1 35 C-1.33 35.66 -1.66 36.32 -2 37 C-2 36.01 -2 35.02 -2 34 C-2.8353125 34.05220703 -2.8353125 34.05220703 -3.6875 34.10546875 C-9.30460558 34.30472418 -14.05310485 33.83159383 -19 31 C-23.42808693 26.45837238 -24.1647706 22.83254117 -24.25 16.625 C-24.27578125 15.50351563 -24.3015625 14.38203125 -24.328125 13.2265625 C-23.95611448 9.56845904 -23.28781712 7.86220525 -21 5 C-14.07557389 0.11339299 -8.26912752 -1.92946309 0 0 Z " fill="#FAFBFB" transform="translate(387,147)"/>
<path d="M0 0 C0.3403125 0.928125 0.3403125 0.928125 0.6875 1.875 C2.08514186 4.6090136 2.08514186 4.6090136 7 6 C7.33 16.89 7.66 27.78 8 39 C8.99 39.495 8.99 39.495 10 40 C10 40.66 10 41.32 10 42 C11.32 42.66 12.64 43.32 14 44 C13.01 44.495 13.01 44.495 12 45 C12 46.98 12 48.96 12 51 C5.62149533 51.49065421 5.62149533 51.49065421 2.625 49.125 C-0.13140221 45.52047403 -0.17409848 43.1928767 -0.31640625 38.6796875 C-0.35830078 37.42285156 -0.40019531 36.16601562 -0.44335938 34.87109375 C-0.48267578 33.55238281 -0.52199219 32.23367187 -0.5625 30.875 C-0.60569512 29.53514249 -0.64930973 28.19529844 -0.69335938 26.85546875 C-0.79970981 23.57042185 -0.90173808 20.28529719 -1 17 C-2.32 17.33 -3.64 17.66 -5 18 C-5 20.31 -5 22.62 -5 25 C-7.64 25 -10.28 25 -13 25 C-13 33.58 -13 42.16 -13 51 C-14.98 51 -16.96 51 -19 51 C-19 42.42 -19 33.84 -19 25 C-20.65 25 -22.3 25 -24 25 C-24 23.02 -24 21.04 -24 19 C-22.35 19 -20.7 19 -19 19 C-19.061875 18.113125 -19.12375 17.22625 -19.1875 16.3125 C-18.97589729 12.57418547 -18.28109386 10.93283496 -16 8 C-12.77841364 5.66712712 -9.89042645 5.82316243 -6 6 C-5.67 4.35 -5.34 2.7 -5 1 C-3.35 0.67 -1.7 0.34 0 0 Z " fill="#F5F9FA" transform="translate(246,129)"/>
<path d="M0 0 C4.08685144 1.36715782 7.06420836 2.77083661 9.70703125 6.2421875 C12.48229052 12.16162267 11.84111691 19.47664926 9.8125 25.5625 C7.14182777 29.15409369 5.1170646 31.49078842 0.62890625 32.5703125 C-3.37618575 33.12971614 -6.12291529 33.38134118 -9.875 31.75 C-10.926875 30.88375 -10.926875 30.88375 -12 30 C-13.0828125 29.3503125 -13.0828125 29.3503125 -14.1875 28.6875 C-18.04004216 25.1006504 -18.17102625 20.504156 -18.375 15.5 C-18.2672777 10.53804152 -17.46302417 7.73642082 -14 4 C-9.59620945 0.19672634 -5.72467842 -1.05933302 0 0 Z " fill="#2F3C55" transform="translate(173,148)"/>
<path d="M0 0 C3.29379958 2.41009725 4.28847676 3.9821512 5.5625 7.875 C5.5625 11.175 5.5625 14.475 5.5625 17.875 C-1.6975 17.875 -8.9575 17.875 -16.4375 17.875 C-14.27083333 23.70833333 -14.27083333 23.70833333 -11.4375 24.875 C-8.71989892 24.94681821 -6.02890612 24.96799506 -3.3125 24.9375 C-2.18134766 24.93073242 -2.18134766 24.93073242 -1.02734375 24.92382812 C0.83597127 24.91203499 2.69924555 24.89409942 4.5625 24.875 C4.5625 26.525 4.5625 28.175 4.5625 29.875 C1.44863918 31.43193041 -1.83494932 31.10067195 -5.25 31.125 C-5.96220703 31.145625 -6.67441406 31.16625 -7.40820312 31.1875 C-11.96881764 31.22125108 -14.82827724 30.69759729 -18.4375 27.875 C-22.53460451 22.67056995 -23.06266065 18.32339164 -22.82421875 11.75390625 C-22.12750304 6.56724483 -20.21407849 3.49482156 -16.3125 -0.0625 C-10.82698569 -2.08975529 -5.51262064 -1.80413039 0 0 Z " fill="#36435B" transform="translate(413.4375,149.125)"/>
<path d="M0 0 C4.13041615 1.87746189 5.61157654 3.32673267 7.875 7.25 C9 11 9 11 9 19 C1.41 19 -6.18 19 -14 19 C-13.01 20.65 -12.02 22.3 -11 24 C-11 24.66 -11 25.32 -11 26 C-5.06 26 0.88 26 7 26 C7 27.65 7 29.3 7 31 C3.96843143 32.51578428 1.12033386 32.24971927 -2.25 32.3125 C-3.55453125 32.34988281 -4.8590625 32.38726562 -6.203125 32.42578125 C-10.59307975 31.93349209 -12.62824696 30.80320231 -16 28 C-19.21542755 23.90763766 -20.68900473 19.20048005 -20.3828125 14.015625 C-19.39676483 8.82378216 -17.17591968 5.1199235 -13.375 1.5 C-8.78520221 -0.53991013 -4.94466128 -0.77988967 0 0 Z " fill="#35445A" transform="translate(315,148)"/>
<path d="M0 0 C3.15330554 0.60694155 5.18888867 1.6416665 7.75 3.5625 C8.67039062 4.24505859 8.67039062 4.24505859 9.609375 4.94140625 C10.29773438 5.46541016 10.29773438 5.46541016 11 6 C9.37416303 12.35554451 6.15863655 15.14256855 1.3125 19.3125 C-4.51608097 22.2817771 -10.34630496 21.70762024 -16.5 19.8125 C-21.52037811 17.94445233 -26.26891774 15.49888061 -31 13 C-30.45660208 8.43545749 -29.20536179 5.0271824 -27 1 C-23.10182196 1.39981313 -20.0529701 2.37105644 -16.5625 4.0625 C-12.50326816 5.9113266 -9.50827559 6.86697608 -5 6 C-2.89785538 4.15862775 -1.60472842 2.33415044 0 0 Z " fill="#2980FA" transform="translate(88,138)"/>
<path d="M0 0 C2.47971984 0.96582596 4.83757359 2.03968575 7.21484375 3.234375 C8.00503906 3.6159375 8.79523438 3.9975 9.609375 4.390625 C11.49055717 5.31309612 13.35483395 6.26992548 15.21484375 7.234375 C14.57007306 8.85979693 13.92399232 10.48469924 13.27734375 12.109375 C12.73787109 13.46675781 12.73787109 13.46675781 12.1875 14.8515625 C11.21484375 17.234375 11.21484375 17.234375 10.21484375 19.234375 C6.84558409 18.81321754 4.29545782 17.82143625 1.33984375 16.234375 C-3.30155709 13.8393772 -7.38558993 12.70113804 -12.59765625 13.859375 C-15.36744417 15.60038455 -15.89113705 17.14594503 -16.78515625 20.234375 C-20.89474392 18.78393229 -24.2177437 16.72326748 -27.78515625 14.234375 C-27.24914566 8.15958835 -23.46751679 4.83261752 -19.28515625 0.859375 C-13.15614953 -1.98623526 -6.47892955 -1.78102411 0 0 Z " fill="#2080F1" transform="translate(82.78515625,160.765625)"/>
<path d="M0 0 C1.11375 0.495 1.11375 0.495 2.25 1 C2.25 2.98 2.25 4.96 2.25 7 C1.73179687 6.84273437 1.21359375 6.68546875 0.6796875 6.5234375 C-5.07824907 5.28298171 -12.43541222 4.56843073 -17.9296875 6.94140625 C-21.03742265 9.40749459 -22.86142365 12.17912168 -23.75 16 C-24.3730168 22.33400415 -23.406837 26.73270167 -19.75 32 C-16.5168081 35.13521638 -13.64132081 35.17961267 -9.3125 35.25 C-5.38112362 35.14374658 -1.60415833 34.83333153 2.25 34 C2.25 35.98 2.25 37.96 2.25 40 C-1.52659251 41.18857226 -5.18520166 41.20281679 -9.125 41.25 C-10.41148437 41.27578125 -11.69796875 41.3015625 -13.0234375 41.328125 C-18.57481856 40.83932415 -21.67727779 39.12148231 -25.5 35.125 C-30.52426242 28.14685775 -30.52462555 21.39500442 -29.75 13 C-27.93534315 6.94770699 -23.14899289 3.09337116 -17.9296875 -0.12109375 C-12.45383651 -2.32909818 -5.57071188 -1.48552317 0 0 Z " fill="#2A394E" transform="translate(148.75,139)"/>
<path d="M0 0 C1.65 0 3.3 0 5 0 C5.66 0.99 6.32 1.98 7 3 C7.66 2.505 8.32 2.01 9 1.5 C13.47736776 -0.73868388 17.42090278 -0.6970533 22.3125 0.625 C24.99858804 2.81366433 25.75082415 4.72438333 27 8 C27.36343547 12.13219134 27.28267989 16.23101402 27.1875 20.375 C27.16719727 22.05142578 27.16719727 22.05142578 27.14648438 23.76171875 C27.11127164 26.50831211 27.06202096 29.25390289 27 32 C25.02 32 23.04 32 21 32 C21 23.75 21 15.5 21 7 C18.38672515 6.12890838 16.69288829 5.81120201 14 5.75 C13.319375 5.72421875 12.63875 5.6984375 11.9375 5.671875 C9.3352725 6.11257482 8.61386181 6.92702956 7 9 C6.4959183 11.50873159 6.4959183 11.50873159 6.48828125 14.32421875 C6.45283203 15.35224609 6.41738281 16.38027344 6.38085938 17.43945312 C6.35830078 18.51130859 6.33574219 19.58316406 6.3125 20.6875 C6.27833984 21.77095703 6.24417969 22.85441406 6.20898438 23.97070312 C6.1264544 26.6470322 6.05732063 29.32303159 6 32 C4.02 32 2.04 32 0 32 C0 21.44 0 10.88 0 0 Z " fill="#38455A" transform="translate(330,148)"/>
<path d="M0 0 C1.98 0 3.96 0 6 0 C6.02505615 0.71655762 6.0501123 1.43311523 6.07592773 2.17138672 C6.19169751 5.40611514 6.31450969 8.64053841 6.4375 11.875 C6.47681641 13.00292969 6.51613281 14.13085938 6.55664062 15.29296875 C6.59853516 16.36933594 6.64042969 17.44570312 6.68359375 18.5546875 C6.72025146 19.54968262 6.75690918 20.54467773 6.79467773 21.56982422 C6.84959532 24.00779501 6.84959532 24.00779501 8 26 C9.60184626 26.1352403 11.20696626 26.23210847 12.8125 26.3125 C13.70582031 26.37050781 14.59914063 26.42851562 15.51953125 26.48828125 C18.12647277 26.22050255 18.12647277 26.22050255 19.78125 24.15625 C21.56377149 19.5399764 21.57207163 15.09815272 21.6875 10.1875 C21.72166016 9.20845703 21.75582031 8.22941406 21.79101562 7.22070312 C21.87319858 4.81391655 21.94244433 2.40748055 22 0 C23.65 0 25.3 0 27 0 C27 10.56 27 21.12 27 32 C25.35 32 23.7 32 22 32 C21.67 30.68 21.34 29.36 21 28 C20.5875 28.45375 20.175 28.9075 19.75 29.375 C16.61603093 32.28511414 14.93097218 33.03385353 10.5625 32.875 C6.60545243 31.90309358 4.7889251 30.94829225 2 28 C-0.61465064 22.36357318 -0.22689068 16.6992518 -0.125 10.625 C-0.11597656 9.60277344 -0.10695313 8.58054688 -0.09765625 7.52734375 C-0.0742043 5.01798478 -0.04138355 2.50911664 0 0 Z " fill="#49546A" transform="translate(262,148)"/>
<path d="M0 0 C1.65 0 3.3 0 5 0 C5.33 1.32 5.66 2.64 6 4 C6.66 3.34 7.32 2.68 8 2 C11.84519967 -0.56346645 14.50625032 -0.73832398 19 0 C22.28759375 1.3150375 23.63185619 2.46194367 25.625 5.375 C27.59430205 10.56679632 27.31955409 15.37613228 27.1875 20.875 C27.16719727 22.47988281 27.16719727 22.47988281 27.14648438 24.1171875 C27.11128624 26.74531511 27.06204693 29.37239194 27 32 C25.02 32 23.04 32 21 32 C20.98018066 31.28344238 20.96036133 30.56688477 20.93994141 29.82861328 C20.84490481 26.5936937 20.73513981 23.35943906 20.625 20.125 C20.5940625 18.99707031 20.563125 17.86914062 20.53125 16.70703125 C20.49257812 15.63066406 20.45390625 14.55429688 20.4140625 13.4453125 C20.36693115 11.95281982 20.36693115 11.95281982 20.31884766 10.43017578 C20.22752917 7.82145483 20.22752917 7.82145483 18 6 C13.86002433 5.8028583 10.92296433 5.69234522 7 7 C6.0268319 9.9195043 5.8070454 12.05444951 5.68359375 15.10546875 C5.64169922 16.08837891 5.59980469 17.07128906 5.55664062 18.08398438 C5.51732422 19.10814453 5.47800781 20.13230469 5.4375 21.1875 C5.37272461 22.74114258 5.37272461 22.74114258 5.30664062 24.32617188 C5.20055634 26.8839819 5.09849854 29.44188845 5 32 C3.35 32 1.7 32 0 32 C0 21.44 0 10.88 0 0 Z " fill="#2E3A51" transform="translate(191,148)"/>
<path d="M0 0 C2.97 0 5.94 0 9 0 C9 0.66 9 1.32 9 2 C10.9600281 3.63676257 10.9600281 3.63676257 13 5 C12.071875 5.515625 11.14375 6.03125 10.1875 6.5625 C6.48748383 9.0554187 5.28824639 11.70584535 4 16 C3.3222033 22.10017027 4.16371937 27.04251414 8 32 C11.8690071 34.94262512 15.01170692 35.4450357 19.8125 35.6875 C20.97394531 35.75324219 22.13539063 35.81898438 23.33203125 35.88671875 C24.21246094 35.92410156 25.09289062 35.96148437 26 36 C26 36.33 26 36.66 26 37 C25.11957031 37.06058594 24.23914063 37.12117188 23.33203125 37.18359375 C22.17058594 37.26738281 21.00914062 37.35117188 19.8125 37.4375 C18.66394531 37.51871094 17.51539063 37.59992188 16.33203125 37.68359375 C13.07595729 37.93412558 13.07595729 37.93412558 10.21875 38.5625 C7.79013145 39.04138253 6.32568374 38.77522791 4 38 C3.67 38.66 3.34 39.32 3 40 C2.34 40 1.68 40 1 40 C0.34 39.34 -0.32 38.68 -1 38 C-1.66 38.66 -2.32 39.32 -3 40 C-4.32 40 -5.64 40 -7 40 C-6.67 38.68 -6.34 37.36 -6 36 C-5.01 36 -4.02 36 -3 36 C-3 25.77 -3 15.54 -3 5 C-1.68 4.67 -0.36 4.34 1 4 C0.67 2.68 0.34 1.36 0 0 Z " fill="#F5F7F9" transform="translate(292,144)"/>
<path d="M0 0 C1 1 1 1 1.0625 3.5625 C1.041875 4.366875 1.02125 5.17125 1 6 C-1.31 6.33 -3.62 6.66 -6 7 C-6.33 8.98 -6.66 10.96 -7 13 C-4.36 13 -1.72 13 1 13 C1 14.98 1 16.96 1 19 C-1.64 19 -4.28 19 -7 19 C-7 27.58 -7 36.16 -7 45 C-8.98 45 -10.96 45 -13 45 C-13 36.42 -13 27.84 -13 19 C-14.65 19 -16.3 19 -18 19 C-18 17.02 -18 15.04 -18 13 C-16.35 13 -14.7 13 -13 13 C-13.061875 12.113125 -13.12375 11.22625 -13.1875 10.3125 C-12.97589729 6.57418547 -12.28109386 4.93283496 -10 2 C-6.78993756 -0.32452797 -3.88293258 -0.25886217 0 0 Z " fill="#34435A" transform="translate(240,135)"/>
<path d="M0 0 C3.34139976 0.02999461 4.22721051 0.29795352 7.1875 2.1875 C10.78631154 5.89536643 10.51972278 8.85030571 10.4765625 13.828125 C10.1889947 16.98145466 9.2787596 18.89359433 7.25 21.3125 C3.79968739 23.03765631 0.02283696 22.80927924 -3.75 22.3125 C-6.78215675 20.11418636 -7.56654398 18.86286806 -8.75 15.3125 C-9.25495132 9.15209388 -8.76042869 6.29515382 -4.75 1.3125 C-3.75 0.3125 -3.75 0.3125 0 0 Z " fill="#F7F9FA" transform="translate(168.75,152.6875)"/>
<path d="M0 0 C0 1.32 0 2.64 0 4 C-1.22976563 4.03867188 -1.22976563 4.03867188 -2.484375 4.078125 C-4.10085938 4.16320312 -4.10085938 4.16320312 -5.75 4.25 C-7.35101563 4.31960937 -7.35101563 4.31960937 -8.984375 4.390625 C-12.56059254 5.11328036 -13.7436334 6.19535741 -16 9 C-17.7498732 12.4997464 -17.54083407 16.1811838 -17 20 C-15.42251492 23.24600077 -15.42251492 23.24600077 -12 25 C-7.99900718 25.69197925 -4.05614147 25.92883962 0 26 C-0.33 27.65 -0.66 29.3 -1 31 C-12.61594942 31.62043647 -12.61594942 31.62043647 -17.625 29.375 C-23.22563071 23.77436929 -23.34453895 18.74773854 -23.3984375 11.12109375 C-22.95435224 7.64242588 -22.07773175 5.79957282 -20 3 C-14.46677546 -1.26519392 -6.61510831 -3.30755415 0 0 Z " fill="#36445D" transform="translate(386,149)"/>
<path d="M0 0 C0.3403125 0.9590625 0.3403125 0.9590625 0.6875 1.9375 C1.85250896 4.27193661 1.85250896 4.27193661 4.625 4.75 C5.40875 4.8325 6.1925 4.915 7 5 C7.33 4.34 7.66 3.68 8 3 C8 5.97 8 8.94 8 12 C7.34 12 6.68 12 6 12 C6.061875 13.2375 6.12375 14.475 6.1875 15.75 C6.19411898 19.50957972 5.60722752 21.19221652 3 24 C1.73195434 26.0335948 1.73195434 26.0335948 1 28 C1.33 28.66 1.66 29.32 2 30 C0.68 30 -0.64 30 -2 30 C-2 29.01 -2 28.02 -2 27 C-1.34 27 -0.68 27 0 27 C0 25.35 0 23.7 0 22 C-0.66 22.33 -1.32 22.66 -2 23 C-4.2873598 23.17484831 -6.58141443 23.26720049 -8.875 23.3125 C-10.10992187 23.34988281 -11.34484375 23.38726562 -12.6171875 23.42578125 C-16 23 -16 23 -18.3828125 21.23046875 C-20 19 -20 19 -21 15 C-13.41 15 -5.82 15 2 15 C0.82774048 7.91603406 0.82774048 7.91603406 -1 1 C-0.67 0.67 -0.34 0.34 0 0 Z " fill="#F8F8F3" transform="translate(322,152)"/>
<path d="M0 0 C2 3 2 3 2 5 C2.66 5 3.32 5 4 5 C4 3.35 4 1.7 4 0 C4.33 0 4.66 0 5 0 C5 10.23 5 20.46 5 31 C4.67 30.34 4.34 29.68 4 29 C3.34 29 2.68 29 2 29 C1.34 29.66 0.68 30.32 0 31 C-0.33 30.34 -0.66 29.68 -1 29 C-2.32 29.33 -3.64 29.66 -5 30 C-5 30.99 -5 31.98 -5 33 C-6.6875 34.125 -6.6875 34.125 -9 35 C-11.75 34.125 -11.75 34.125 -14 33 C-14 32.34 -14 31.68 -14 31 C-12.906875 30.5875 -11.81375 30.175 -10.6875 29.75 C-7.4781593 28.37549449 -5.75162337 27.11399711 -4 24 C-2.87949849 20.63849548 -2.86703348 18.03713274 -2.875 14.5 C-2.87242187 13.3553125 -2.86984375 12.210625 -2.8671875 11.03125 C-2.86315592 7.95320141 -2.86315592 7.95320141 -4 5 C-3.34 5 -2.68 5 -2 5 C-2.33 4.01 -2.66 3.02 -3 2 C-2.01 1.34 -1.02 0.68 0 0 Z " fill="#EDF2F4" transform="translate(186,149)"/>
<path d="M0 0 C1.65 0 3.3 0 5 0 C5.33 12.54 5.66 25.08 6 38 C7.65 38.33 9.3 38.66 11 39 C11 40.65 11 42.3 11 44 C4.73713355 44.48175896 4.73713355 44.48175896 1.79003906 42.55566406 C-0.87438925 38.75162211 -0.50022633 35.3947316 -0.390625 30.859375 C-0.38496521 29.97719299 -0.37930542 29.09501099 -0.37347412 28.18609619 C-0.35111591 25.37350787 -0.30092132 22.56220205 -0.25 19.75 C-0.22993425 17.84116426 -0.21168361 15.93230851 -0.1953125 14.0234375 C-0.151253 9.34846555 -0.08222984 4.67445008 0 0 Z " fill="#314155" transform="translate(247,136)"/>
<path d="M0 0 C3.84409278 0.39426593 6.86977902 1.33299826 10.3125 3 C14.92016976 5.16278376 18.9389488 5.67866342 24 6 C23.67 6.66 23.34 7.32 23 8 C20.71484375 8.4140625 20.71484375 8.4140625 17.9375 8.625 C17.01839844 8.69976562 16.09929687 8.77453125 15.15234375 8.8515625 C14.08693359 8.92503906 14.08693359 8.92503906 13 9 C14.96822886 10.96822886 18.34808709 10.66248381 21 11 C21 11.33 21 11.66 21 12 C19.35 12 17.7 12 16 12 C16 12.66 16 13.32 16 14 C16.99 14.33 17.98 14.66 19 15 C16.77110504 15.05428973 14.54182529 15.09292338 12.3125 15.125 C10.45044922 15.15980469 10.45044922 15.15980469 8.55078125 15.1953125 C5.15646057 15.00860619 3.03782343 14.43211676 0 13 C-1.32676508 12.64141484 -2.65835921 12.2981424 -4 12 C-3.45660208 7.43545749 -2.20536179 4.0271824 0 0 Z " fill="#1C67DC" transform="translate(61,139)"/>
<path d="M0 0 C3.625 1.625 3.625 1.625 6 3 C5.35522931 4.62542193 4.70914857 6.25032424 4.0625 7.875 C3.70285156 8.77992188 3.34320313 9.68484375 2.97265625 10.6171875 C2 13 2 13 1 15 C-3.85963179 14.39254603 -7.7405518 12.27241033 -12 10 C-12 9.01 -12 8.02 -12 7 C-13.98 7 -15.96 7 -18 7 C-17.25 5.0625 -17.25 5.0625 -16 3 C-13.875 2.25 -13.875 2.25 -12 2 C-12 1.01 -12 0.02 -12 -1 C-8.28676479 -2.85661761 -3.86956307 -1.02951678 0 0 Z " fill="#1060DA" transform="translate(92,165)"/>
<path d="M0 0 C0.66 0.33 1.32 0.66 2 1 C2 1.99 2 2.98 2 4 C2.99 3.67 3.98 3.34 5 3 C6.125 6.75 6.125 6.75 5 9 C4.34 9 3.68 9 3 9 C3.33 9.99 3.66 10.98 4 12 C3.55350554 17.35793358 3.55350554 17.35793358 1.4375 19.8125 C0.963125 20.204375 0.48875 20.59625 0 21 C0 21.33 0 21.66 0 22 C-5.34300162 23.18088079 -10.55203355 23.74327578 -16 23 C-19.1875 20.6875 -19.1875 20.6875 -21 18 C-21 17.01 -21 16.02 -21 15 C-13.74 15 -6.48 15 1 15 C0.649375 12.710625 0.29875 10.42125 -0.0625 8.0625 C-0.42201877 5.7150539 -0.74607582 3.36120297 -1 1 C-0.67 0.67 -0.34 0.34 0 0 Z " fill="#F4F7F9" transform="translate(418,152)"/>
<path d="M0 0 C0.33 0 0.66 0 1 0 C1.1953125 2.05078125 1.390625 4.1015625 1.5859375 6.15234375 C1.72257812 6.76207031 1.85921875 7.37179688 2 8 C2.66 8.33 3.32 8.66 4 9 C4.625 11.0625 4.625 11.0625 5 13 C5 11.35 5 9.7 5 8 C12.59 8 20.18 8 28 8 C28 8.33 28 8.66 28 9 C20.74 9 13.48 9 6 9 C8.16666667 14.83333333 8.16666667 14.83333333 11 16 C13.71760108 16.07181821 16.40859388 16.09299506 19.125 16.0625 C20.25615234 16.05573242 20.25615234 16.05573242 21.41015625 16.04882812 C23.27347127 16.03703499 25.13674555 16.01909942 27 16 C27 17.65 27 19.3 27 21 C23.88613918 22.55693041 20.60255068 22.22567195 17.1875 22.25 C16.11918945 22.2809375 16.11918945 22.2809375 15.02929688 22.3125 C10.46868236 22.34625108 7.60922276 21.82259729 4 19 C-0.75320994 12.96213872 -0.44219872 7.48052834 0 0 Z " fill="#26364E" transform="translate(391,158)"/>
<path d="M0 0 C2.75 0.0625 2.75 0.0625 6 1 C10.70129902 7.04452732 10.49022129 12.49525974 10.25 19.9375 C10.23195312 21.00291016 10.21390625 22.06832031 10.1953125 23.16601562 C10.14845557 25.77828929 10.08286926 28.38866226 10 31 C8.02 31 6.04 31 4 31 C3.98541748 30.29915283 3.97083496 29.59830566 3.95581055 28.8762207 C3.88114513 25.68776991 3.78454525 22.50034487 3.6875 19.3125 C3.66494141 18.20970703 3.64238281 17.10691406 3.61914062 15.97070312 C3.58369141 14.90400391 3.54824219 13.83730469 3.51171875 12.73828125 C3.48553467 11.75899658 3.45935059 10.77971191 3.43237305 9.77075195 C2.93581008 6.58865531 1.73576279 4.67970829 0 2 C0 1.34 0 0.68 0 0 Z " fill="#36465B" transform="translate(208,149)"/>
<path d="M0 0 C1.65 0 3.3 0 5 0 C5 10.56 5 21.12 5 32 C3.35 32 1.7 32 0 32 C-0.33 30.68 -0.66 29.36 -1 28 C-2.32 28.33 -3.64 28.66 -5 29 C-3 25 -3 25 -1.95556641 23.17089844 C-0.85150073 20.66263272 -0.68592192 18.74853238 -0.5859375 16.015625 C-0.52792969 14.61376953 -0.52792969 14.61376953 -0.46875 13.18359375 C-0.42234375 11.73146484 -0.42234375 11.73146484 -0.375 10.25 C-0.31699219 8.77466797 -0.31699219 8.77466797 -0.2578125 7.26953125 C-0.16371574 4.84653963 -0.07807672 2.42355204 0 0 Z " fill="#2F3B4F" transform="translate(284,148)"/>
<path d="M0 0 C0 1.98 0 3.96 0 6 C-0.51820313 5.84144531 -1.03640625 5.68289062 -1.5703125 5.51953125 C-7.33729332 4.2863987 -14.70642387 3.69057477 -20.25 5.89453125 C-22.03859864 7.04906449 -22.03859864 7.04906449 -24 9 C-24 8.34 -24 7.68 -24 7 C-25.65 7 -27.3 7 -29 7 C-21.73641089 -2.61357382 -11.31655181 -5.02957858 0 0 Z " fill="#2C394F" transform="translate(151,140)"/>
<path d="M0 0 C-0.1328125 2.29296875 -0.1328125 2.29296875 -1 5 C-3.6171875 6.80078125 -3.6171875 6.80078125 -6.875 8.3125 C-7.94492188 8.82425781 -9.01484375 9.33601562 -10.1171875 9.86328125 C-13 11 -13 11 -16 11 C-17.32 11.33 -18.64 11.66 -20 12 C-18.02 9.69 -16.04 7.38 -14 5 C-14.33 5.33 -14.66 5.66 -15 6 C-15.66 6 -16.32 6 -17 6 C-17.33 6.66 -17.66 7.32 -18 8 C-18 7.34 -18 6.68 -18 6 C-18.66 6 -19.32 6 -20 6 C-19.8125 4.1875 -19.8125 4.1875 -19 2 C-12.09432607 -2.78085118 -7.96961857 -2.50027249 0 0 Z " fill="#1F80F7" transform="translate(82,163)"/>
<path d="M0 0 C0.99 0.66 1.98 1.32 3 2 C0.66140649 4.33859351 -0.19676356 4.30652515 -3.375 4.75 C-6.94450026 5.50177578 -7.84424089 5.84034692 -10.5 8.5625 C-12.08132772 12.18637602 -12.55098863 15.03932366 -12.7265625 18.94921875 C-13 21 -13 21 -15 24 C-15.66 24 -16.32 24 -17 24 C-18.9336187 18.1991439 -18.99359019 12.1018254 -16.375 6.5625 C-11.15332029 0.92858242 -7.50682766 -0.73837649 0 0 Z " fill="#28344E" transform="translate(173,148)"/>
<path d="M0 0 C0.66 0.33 1.32 0.66 2 1 C2.37890625 3.546875 2.37890625 3.546875 2.5625 6.75 C2.79453493 10.59515022 3.15708034 14.23820976 4 18 C3.01 18.66 2.02 19.32 1 20 C1.33 20.99 1.66 21.98 2 23 C0.6875 24.5 0.6875 24.5 -1 26 C-1.99 26 -2.98 26 -4 26 C-4 18.74 -4 11.48 -4 4 C-2.68 3.34 -1.36 2.68 0 2 C0 1.34 0 0.68 0 0 Z " fill="#F3F6F6" transform="translate(361,157)"/>
<path d="M0 0 C0.66 0.33 1.32 0.66 2 1 C2 1.66 2 2.32 2 3 C0.906875 3.061875 -0.18625 3.12375 -1.3125 3.1875 C-5.07382164 3.62157579 -5.07382164 3.62157579 -6.875 6.25 C-8.22465881 9.30097749 -8.22465881 9.30097749 -9 14 C-3.39 14 2.22 14 8 14 C8 14.66 8 15.32 8 16 C8.66 16.33 9.32 16.66 10 17 C7.08277452 17.08103404 4.16780484 17.14051081 1.25 17.1875 C0.425 17.21263672 -0.4 17.23777344 -1.25 17.26367188 C-7.42718962 17.33839594 -7.42718962 17.33839594 -10.453125 15.55078125 C-10.96359375 15.03902344 -11.4740625 14.52726563 -12 14 C-12.66 13.67 -13.32 13.34 -14 13 C-13.58634898 7.72594947 -12.71026864 4.82270102 -9 1 C-6.01405576 -0.49297212 -3.29146376 -0.11755228 0 0 Z " fill="#293855" transform="translate(310,149)"/>
<path d="M0 0 C2.4375 1.125 2.4375 1.125 4 3 C4.33 4.98 4.66 6.96 5 9 C-0.61 9 -6.22 9 -12 9 C-12 4 -12 4 -10.5 1.6875 C-6.99055281 -0.68137685 -4.11682794 -0.68472908 0 0 Z " fill="#F2F3F3" transform="translate(409,153)"/>
<path d="M0 0 C1.625 1.4375 1.625 1.4375 2.625 8.4375 C-2.985 8.4375 -8.595 8.4375 -14.375 8.4375 C-13.375 2.4375 -13.375 2.4375 -11.75 0.5625 C-7.80491715 -1.30622345 -4.17922092 -0.98981548 0 0 Z " fill="#EFF3F6" transform="translate(315.375,153.5625)"/>
<path d="M0 0 C1 1 1 1 1.0625 3.5625 C1.041875 4.366875 1.02125 5.17125 1 6 C-1.31 6.33 -3.62 6.66 -6 7 C-6.33 8.98 -6.66 10.96 -7 13 C-4.36 13 -1.72 13 1 13 C1 14.98 1 16.96 1 19 C-1.64 19 -4.28 19 -7 19 C-7 27.58 -7 36.16 -7 45 C-7.33 45 -7.66 45 -8 45 C-8 36.09 -8 27.18 -8 18 C-5.36 18 -2.72 18 0 18 C0 16.68 0 15.36 0 14 C-2.64 14 -5.28 14 -8 14 C-8.33 12.68 -8.66 11.36 -9 10 C-9.66 10 -10.32 10 -11 10 C-11.75 7.75 -11.75 7.75 -12 5 C-8.33209346 0.44673671 -5.72662848 -0.24368632 0 0 Z " fill="#606B7E" transform="translate(240,135)"/>
<path d="M0 0 C0.99 0.33 1.98 0.66 3 1 C3 2.32 3 3.64 3 5 C3.66 5 4.32 5 5 5 C5 4.34 5 3.68 5 3 C5.57975586 3.16298584 6.15951172 3.32597168 6.75683594 3.49389648 C10.22673123 4.27677556 13.712623 4.10312359 17.25 4.0625 C18.36761719 4.05573242 18.36761719 4.05573242 19.5078125 4.04882812 C21.3385764 4.03709246 23.16929873 4.0191585 25 4 C25 5.65 25 7.3 25 9 C21.96843143 10.51578428 19.12033386 10.24971927 15.75 10.3125 C14.44546875 10.34988281 13.1409375 10.38726562 11.796875 10.42578125 C7.42481905 9.93549926 5.37230666 8.76868372 2 6 C0 3 0 3 0 0 Z " fill="#29364A" transform="translate(297,170)"/>
<path d="M0 0 C1.32 0 2.64 0 4 0 C4.07417023 4.50232334 4.1286105 9.00429091 4.16479492 13.50708008 C4.17987936 15.03871861 4.20034978 16.57031398 4.22631836 18.10180664 C4.26271847 20.30365654 4.27972913 22.50493533 4.29296875 24.70703125 C4.30845261 25.39150833 4.32393646 26.07598541 4.33988953 26.78120422 C4.34158031 31.55999359 4.34158031 31.55999359 2.48168945 33.95581055 C1.74825317 34.47268433 1.74825317 34.47268433 1 35 C2.485 34.505 2.485 34.505 4 34 C3 37 3 37 2 39 C1.34 39 0.68 39 0 39 C0 26.13 0 13.26 0 0 Z " fill="#1F3147" transform="translate(247,136)"/>
<path d="M0 0 C7.26 0 14.52 0 22 0 C21.67 1.65 21.34 3.3 21 5 C15.06298864 7.22637926 12.05581659 6.7158147 6 5 C5.01 5.33 4.02 5.66 3 6 C0 2.25 0 2.25 0 0 Z " fill="#F9FAFA" transform="translate(301,167)"/>
<path d="M0 0 C1.32 0.66 2.64 1.32 4 2 C3.67 3.98 3.34 5.96 3 8 C4.25296875 7.98839844 5.5059375 7.97679687 6.796875 7.96484375 C8.44791517 7.95546284 10.09895696 7.94636296 11.75 7.9375 C12.575 7.92912109 13.4 7.92074219 14.25 7.91210938 C15.04921875 7.90888672 15.8484375 7.90566406 16.671875 7.90234375 C17.4050293 7.89710693 18.13818359 7.89187012 18.89355469 7.88647461 C21.0461849 8.0024891 22.9314135 8.40926729 25 9 C25.33 7.68 25.66 6.36 26 5 C26 6.98 26 8.96 26 11 C18.41 11 10.82 11 3 11 C3 12.65 3 14.3 3 16 C2.34 15.67 1.68 15.34 1 15 C1.33 14.01 1.66 13.02 2 12 C1.01 11.67 0.02 11.34 -1 11 C-1.02688151 9.35425434 -1.04634123 7.70838587 -1.0625 6.0625 C-1.07410156 5.14597656 -1.08570313 4.22945312 -1.09765625 3.28515625 C-1 1 -1 1 0 0 Z " fill="#203149" transform="translate(393,155)"/>
<path d="M0 0 C0.80824219 0.11085937 1.61648438 0.22171875 2.44921875 0.3359375 C3.37154297 0.47902344 3.37154297 0.47902344 4.3125 0.625 C4.3125 2.605 4.3125 4.585 4.3125 6.625 C4.9725 6.295 5.6325 5.965 6.3125 5.625 C6.96805119 3.09766765 6.96805119 3.09766765 7.3125 0.625 C8.055 0.975625 8.7975 1.32625 9.5625 1.6875 C12.4447726 2.67009293 13.52426345 2.6576802 16.3125 1.625 C16.3125 2.285 16.3125 2.945 16.3125 3.625 C15.69375 3.686875 15.075 3.74875 14.4375 3.8125 C12.07462503 4.43193523 12.07462503 4.43193523 11.25 6.9375 C10.940625 7.824375 10.63125 8.71125 10.3125 9.625 C9.0625 11.9375 9.0625 11.9375 7.3125 13.625 C4.125 13.875 4.125 13.875 1.3125 13.625 C1.9725 13.295 2.6325 12.965 3.3125 12.625 C3.3125 11.965 3.3125 11.305 3.3125 10.625 C2.6525 10.625 1.9925 10.625 1.3125 10.625 C0.9825 9.305 0.6525 7.985 0.3125 6.625 C1.3025 6.625 2.2925 6.625 3.3125 6.625 C3.3125 5.305 3.3125 3.985 3.3125 2.625 C-0.3175 2.295 -3.9475 1.965 -7.6875 1.625 C-4.33422361 -0.61051759 -3.78006343 -0.54783528 0 0 Z " fill="#E7EDEE" transform="translate(382.6875,146.375)"/>
<path d="M0 0 C0.66 0 1.32 0 2 0 C2 7.92 2 15.84 2 24 C0.35 24 -1.3 24 -3 24 C-3 16.74 -3 9.48 -3 2 C-2.01 2.495 -2.01 2.495 -1 3 C-0.67 2.01 -0.34 1.02 0 0 Z " fill="#2D3B53" transform="translate(355,156)"/>
<path d="M0 0 C2.31 0 4.62 0 7 0 C7.33 10.89 7.66 21.78 8 33 C8.66 33.33 9.32 33.66 10 34 C10 34.66 10 35.32 10 36 C11.32 36.66 12.64 37.32 14 38 C12 40 12 40 9.4375 40.1875 C7 40 7 40 6 39 C5.91138008 36.1883662 5.88477645 33.40141745 5.90234375 30.58984375 C5.9037587 29.74780899 5.90517365 28.90577423 5.90663147 28.03822327 C5.91224737 25.33794665 5.92480252 22.63775172 5.9375 19.9375 C5.94251295 18.11132932 5.94707621 16.28515734 5.95117188 14.45898438 C5.96222196 9.97262458 5.97949721 5.48632616 6 1 C4.35 1 2.7 1 1 1 C1 13.54 1 26.08 1 39 C0.67 39 0.34 39 0 39 C0 26.13 0 13.26 0 0 Z " fill="#C4CCD6" transform="translate(246,135)"/>
<path d="M0 0 C0.33 0 0.66 0 1 0 C1 7.26 1 14.52 1 22 C-0.65 22 -2.3 22 -4 22 C-4 15.4 -4 8.8 -4 2 C-3.01 2 -2.02 2 -1 2 C-0.67 1.34 -0.34 0.68 0 0 Z " fill="#27364B" transform="translate(195,158)"/>
<path d="M0 0 C4.84659077 0.59104765 8.60748167 1.97944157 13 4 C12.38125 4.12375 11.7625 4.2475 11.125 4.375 C8.80879168 4.87197356 8.80879168 4.87197356 7 7 C4.875 7.625 4.875 7.625 3 8 C3 9.65 3 11.3 3 13 C1.02 13 -0.96 13 -3 13 C-3.93045933 10.44855176 -4.08564091 9.25993522 -3.22265625 6.640625 C-2.83980469 5.85171875 -2.45695312 5.0628125 -2.0625 4.25 C-1.68222656 3.45078125 -1.30195312 2.6515625 -0.91015625 1.828125 C-0.60980469 1.22484375 -0.30945312 0.6215625 0 0 Z " fill="#1258CD" transform="translate(61,139)"/>
<path d="M0 0 C1.64992943 0.78309408 3.29728625 1.57175513 4.9375 2.375 C4.2775 3.695 3.6175 5.015 2.9375 6.375 C0.9375 5.375 0.9375 5.375 -0.0625 4.375 C-1.0525 4.705 -2.0425 5.035 -3.0625 5.375 C-5.25 4.4375 -5.25 4.4375 -7.0625 3.375 C-7.0625 2.715 -7.0625 2.055 -7.0625 1.375 C-7.3925 0.385 -7.7225 -0.605 -8.0625 -1.625 C-11.43686186 -1.95880814 -11.43686186 -1.95880814 -15.0625 -1.625 C-17.58572276 0.73000791 -18.46208891 3.01269791 -19.0625 6.375 C-20.0525 6.375 -21.0425 6.375 -22.0625 6.375 C-23.0625 3.375 -23.0625 3.375 -21.9375 0.875 C-15.57324355 -7.61067527 -8.30369741 -3.74040424 0 0 Z " fill="#DBEDFA" transform="translate(88.0625,177.625)"/>
<path d="M0 0 C0.86625 0.45375 1.7325 0.9075 2.625 1.375 C8.40462378 3.899846 14.79407361 4.26837206 21 5 C21 5.66 21 6.32 21 7 C22.98 7 24.96 7 27 7 C27.495 8.98 27.495 8.98 28 11 C22 9 22 9 19.1875 7.9609375 C13.21098131 6.1591929 6.22083037 5.41459126 0.484375 8.23828125 C-1.50409189 9.72226673 -3.25771653 11.23625984 -5 13 C-5.56460938 13.56074219 -6.12921875 14.12148437 -6.7109375 14.69921875 C-7.13632812 15.12847656 -7.56171875 15.55773437 -8 16 C-8.1875 13.625 -8.1875 13.625 -8 11 C-5 9 -5 9 -2 9 C-1.67 8.01 -1.34 7.02 -1 6 C-0.34 6 0.32 6 1 6 C0.67 4.02 0.34 2.04 0 0 Z " fill="#D5F0FD" transform="translate(64,154)"/>
<path d="M0 0 C0.85464844 -0.00515625 1.70929688 -0.0103125 2.58984375 -0.015625 C5.18224567 0.26286367 6.82764234 0.94330828 9.0625 2.25 C9.0625 2.91 9.0625 3.57 9.0625 4.25 C6.05218256 5.18423645 5.19599732 5.29449911 2.0625 4.25 C-2.86608652 6.05856783 -2.86608652 6.05856783 -6.9375 9.25 C-7.9275 9.25 -8.9175 9.25 -9.9375 9.25 C-10.2675 9.91 -10.5975 10.57 -10.9375 11.25 C-11.6875 9 -11.6875 9 -11.9375 6.25 C-8.55850895 2.02626119 -5.41296337 -0.03255918 0 0 Z " fill="#2E3E59" transform="translate(404.9375,147.75)"/>
<path d="M0 0 C1.98567708 0.09765625 3.97135417 0.1953125 5.95703125 0.29296875 C4.5446312 3.70626887 3.16161818 5.43190358 -0.04296875 7.29296875 C-3.609375 7.7265625 -3.609375 7.7265625 -7.60546875 7.73046875 C-8.27771484 7.75044922 -8.94996094 7.77042969 -9.64257812 7.79101562 C-11.609375 7.7890625 -11.609375 7.7890625 -15.04296875 7.29296875 C-17.0078125 5.265625 -17.0078125 5.265625 -18.04296875 3.29296875 C-17.13933594 3.32777344 -16.23570313 3.36257812 -15.3046875 3.3984375 C-13.53544922 3.43904297 -13.53544922 3.43904297 -11.73046875 3.48046875 C-10.55871094 3.51527344 -9.38695313 3.55007812 -8.1796875 3.5859375 C-4.14575259 3.20916898 -3.59865454 0.51605945 0 0 Z " fill="#1F87FA" transform="translate(87.04296875,149.70703125)"/>
<path d="M0 0 C0.33 0.66 0.66 1.32 1 2 C2.88764903 2.68472665 2.88764903 2.68472665 5.0625 3.125 C5.79597656 3.29257813 6.52945312 3.46015625 7.28515625 3.6328125 C7.85105469 3.75398437 8.41695313 3.87515625 9 4 C9 4.33 9 4.66 9 5 C15.6 5.33 22.2 5.66 29 6 C29 6.33 29 6.66 29 7 C21.41 7 13.82 7 6 7 C6.99 8.98 7.98 10.96 9 13 C8.34 13 7.68 13 7 13 C7 13.66 7 14.32 7 15 C6.34 15 5.68 15 5 15 C4.67 13.68 4.34 12.36 4 11 C3.01 11 2.02 11 1 11 C-0.28317892 7.15046324 -0.06643637 4.05261865 0 0 Z " fill="#4B596C" transform="translate(295,160)"/>
<path d="M0 0 C2 1.3125 2 1.3125 3 3 C3 3.99 3 4.98 3 6 C2.01 6.33 1.02 6.66 0 7 C-0.33 6.01 -0.66 5.02 -1 4 C-1.99 3.67 -2.98 3.34 -4 3 C-4 3.66 -4 4.32 -4 5 C-4.598125 5.12375 -5.19625 5.2475 -5.8125 5.375 C-8.26231348 5.95475985 -8.26231348 5.95475985 -11 8 C-11.50621513 10.02276681 -11.50621513 10.02276681 -11.51171875 12.3515625 C-11.54716797 13.20234375 -11.58261719 14.053125 -11.61914062 14.9296875 C-11.64169922 15.81914062 -11.66425781 16.70859375 -11.6875 17.625 C-11.72166016 18.5221875 -11.75582031 19.419375 -11.79101562 20.34375 C-11.87362402 22.56237538 -11.94272719 24.7805994 -12 27 C-12.33 27 -12.66 27 -13 27 C-13.14567407 23.43793278 -13.23419196 19.87663449 -13.3125 16.3125 C-13.35439453 15.30509766 -13.39628906 14.29769531 -13.43945312 13.25976562 C-13.5627144 5.79013265 -13.5627144 5.79013265 -10.73828125 1.82421875 C-6.63980914 -0.90614712 -4.83386191 -0.62372412 0 0 Z " fill="#D6DEE5" transform="translate(209,153)"/>
<path d="M0 0 C1.32 0 2.64 0 4 0 C4 7.26 4 14.52 4 22 C2.66666667 22 1.33333333 22 0 22 C0 14.74 0 7.48 0 0 Z " fill="#1F3048" transform="translate(263,149)"/>
<path d="M0 0 C0.639375 0.804375 1.27875 1.60875 1.9375 2.4375 C5.17112801 6.45503783 6.81594715 6.34021146 12 7 C10.02 7.99 10.02 7.99 8 9 C8 9.66 8 10.32 8 11 C9.32 10.67 10.64 10.34 12 10 C12 10.99 12 11.98 12 13 C5.27494919 12.83560987 1.78944649 11.78944649 -3 7 C-2.25 2.25 -2.25 2.25 0 0 Z " fill="#37455A" transform="translate(160,168)"/>
<path d="M0 0 C4.15414253 1.22736029 6.43688534 2.327664 10 5 C8.35 8.63 6.7 12.26 5 16 C1.14993864 15.22998773 -1.00776573 14.6738858 -4.3125 12.9375 C-5.00988281 12.57527344 -5.70726563 12.21304688 -6.42578125 11.83984375 C-6.94527344 11.56269531 -7.46476562 11.28554687 -8 11 C-8 10.34 -8 9.68 -8 9 C-5.03824877 9.61277612 -3.61941217 10.25372522 -1 12 C-0.01 12 0.98 12 2 12 C2.33 10.02 2.66 8.04 3 6 C4.32 6.33 5.64 6.66 7 7 C7 6.01 7 5.02 7 4 C4.69 3.34 2.38 2.68 0 2 C0 1.34 0 0.68 0 0 Z " fill="#2056A1" transform="translate(88,164)"/>
<path d="M0 0 C4 2 4 2 5.71875 3.03125 C8.74451391 4.31616344 11.47673614 4.42860417 14.75 4.625 C15.92046875 4.69976562 17.0909375 4.77453125 18.296875 4.8515625 C19.63492187 4.92503906 19.63492187 4.92503906 21 5 C21 5.33 21 5.66 21 6 C19.67935547 6.09087891 19.67935547 6.09087891 18.33203125 6.18359375 C16.58986328 6.30927734 16.58986328 6.30927734 14.8125 6.4375 C13.08966797 6.55931641 13.08966797 6.55931641 11.33203125 6.68359375 C8.07595729 6.93412558 8.07595729 6.93412558 5.21875 7.5625 C2.79013145 8.04138253 1.32568374 7.77522791 -1 7 C-1.33 7.66 -1.66 8.32 -2 9 C-2.66 9 -3.32 9 -4 9 C-4.25 6.75 -4.25 6.75 -4 4 C-2 1.6875 -2 1.6875 0 0 Z " fill="#F1F7F4" transform="translate(297,175)"/>
<path d="M0 0 C1.32 0.33 2.64 0.66 4 1 C3.34 1.66 2.68 2.32 2 3 C1.69324768 5.89967757 1.48826629 8.71783178 1.375 11.625 C1.33632813 12.42679688 1.29765625 13.22859375 1.2578125 14.0546875 C1.16346069 16.03607556 1.08063785 18.01800645 1 20 C1.66 20 2.32 20 3 20 C4.35439668 22.70879335 4.06501451 25.00933268 4 28 C3.01 27.67 2.02 27.34 1 27 C1 27.66 1 28.32 1 29 C1.66 29.33 2.32 29.66 3 30 C2.01 30 1.02 30 0 30 C-0.33 29.01 -0.66 28.02 -1 27 C-2.32 27.33 -3.64 27.66 -5 28 C-3 24 -3 24 -1.95556641 22.15722656 C-0.87542772 19.71877347 -0.68815457 17.8920188 -0.5859375 15.234375 C-0.54726563 14.34492188 -0.50859375 13.45546875 -0.46875 12.5390625 C-0.42234375 11.15847656 -0.42234375 11.15847656 -0.375 9.75 C-0.31699219 8.34621094 -0.31699219 8.34621094 -0.2578125 6.9140625 C-0.16375156 4.60956946 -0.07810601 2.30507987 0 0 Z " fill="#213147" transform="translate(284,149)"/>
<path d="M0 0 C1.65 0 3.3 0 5 0 C4.67257812 1.1034375 4.34515625 2.206875 4.0078125 3.34375 C2.73987977 8.41548092 2.77674691 13.30014394 2.875 18.5 C2.88853516 19.87671875 2.88853516 19.87671875 2.90234375 21.28125 C2.92567568 23.52111556 2.95840765 25.76041183 3 28 C3.76699219 27.80664062 4.53398437 27.61328125 5.32421875 27.4140625 C8 27 8 27 10.8125 28.375 C11.534375 28.91125 12.25625 29.4475 13 30 C13 30.33 13 30.66 13 31 C11.37581255 31.08090971 9.75048255 31.13914995 8.125 31.1875 C7.22007812 31.22230469 6.31515625 31.25710937 5.3828125 31.29296875 C4.20332031 31.14794922 4.20332031 31.14794922 3 31 C0.73401552 27.60102327 0.76257346 26.43680827 0.8046875 22.45703125 C0.81113281 21.38388672 0.81757813 20.31074219 0.82421875 19.20507812 C0.84935547 17.52575195 0.84935547 17.52575195 0.875 15.8125 C0.88402344 14.68134766 0.89304687 13.55019531 0.90234375 12.38476562 C0.92593138 9.58963172 0.958847 6.79492155 1 4 C0.34 3.67 -0.32 3.34 -1 3 C-0.67 2.01 -0.34 1.02 0 0 Z " fill="#F2FBFB" transform="translate(267,144)"/>
<path d="M0 0 C2.19140625 0.81640625 2.19140625 0.81640625 5.37890625 2.31640625 C1.05832383 3.61743556 -2.20164839 3.04090549 -6.62109375 2.31640625 C-6.95109375 1.98640625 -7.28109375 1.65640625 -7.62109375 1.31640625 C-12.38186382 1.68261933 -15.76707336 2.45341968 -19.62109375 5.31640625 C-20.61109375 6.80140625 -20.61109375 6.80140625 -21.62109375 8.31640625 C-22.13671875 8.81140625 -22.65234375 9.30640625 -23.18359375 9.81640625 C-24.87626096 11.36843063 -24.87626096 11.36843063 -25.62109375 14.31640625 C-26.28109375 14.31640625 -26.94109375 14.31640625 -27.62109375 14.31640625 C-27.08508316 8.2416196 -23.30345429 4.91464877 -19.12109375 0.94140625 C-13.1213509 -1.84418865 -6.37156276 -1.66173395 0 0 Z " fill="#4483CF" transform="translate(82.62109375,160.68359375)"/>
<path d="M0 0 C1.8984375 0.26953125 1.8984375 0.26953125 4 1 C4.9765625 2.63671875 4.9765625 2.63671875 5.625 4.6875 C5.86089844 5.40292969 6.09679687 6.11835938 6.33984375 6.85546875 C6.66662109 7.91701172 6.66662109 7.91701172 7 9 C7.391875 10.155 7.78375 11.31 8.1875 12.5 C8.455625 13.325 8.72375 14.15 9 15 C7.35 15.33 5.7 15.66 4 16 C0.9005971 12.09205721 -0.13464242 9.29032666 -0.0625 4.3125 C-0.05347656 3.50425781 -0.04445313 2.69601563 -0.03515625 1.86328125 C-0.02355469 1.24839844 -0.01195312 0.63351563 0 0 Z " fill="#2C3B4D" transform="translate(363,161)"/>
<path d="M0 0 C0.33 0.66 0.66 1.32 1 2 C3.02463255 2.65213292 3.02463255 2.65213292 5 3 C4.360625 3.86625 3.72125 4.7325 3.0625 5.625 C1.02451704 8.9598812 0.36566907 11.16047478 0 15 C-0.99 15 -1.98 15 -3 15 C-5.02901001 10.94197998 -5.30073579 8.36675586 -4 4 C-1.9375 1.625 -1.9375 1.625 0 0 Z " fill="#32415A" transform="translate(368,151)"/>
<path d="M0 0 C2.21538462 5.41538462 2.21538462 5.41538462 1.125 8.375 C0.75375 8.91125 0.3825 9.4475 0 10 C-0.33 10 -0.66 10 -1 10 C-1.33 16.6 -1.66 23.2 -2 30 C-2.33 30 -2.66 30 -3 30 C-3 21.75 -3 13.5 -3 5 C-3.99 4.67 -4.98 4.34 -6 4 C-4.63772207 1.27544414 -3.11734545 0 0 0 Z " fill="#5E687A" transform="translate(354,150)"/>
<path d="M0 0 C0.33 0.33 0.66 0.66 1 1 C3.32817964 1.36760731 5.6618385 1.70241581 8 2 C8 2.33 8 2.66 8 3 C6.35 3 4.7 3 3 3 C3 3.66 3 4.32 3 5 C3.99 5.33 4.98 5.66 6 6 C3.70839681 6.02692484 1.41670454 6.04636124 -0.875 6.0625 C-2.15117188 6.07410156 -3.42734375 6.08570313 -4.7421875 6.09765625 C-8 6 -8 6 -10 5 C-10 4.34 -10 3.68 -10 3 C-6.6102211 0.48187853 -4.22032739 -0.46892527 0 0 Z " fill="#0F6CDF" transform="translate(74,148)"/>
<path d="M0 0 C1.46067199 0.45082469 2.91848032 0.91093537 4.375 1.375 C5.18710938 1.63023437 5.99921875 1.88546875 6.8359375 2.1484375 C9 3 9 3 11 5 C13.49013521 5.25343388 15.82145158 5.37025062 18.3125 5.375 C19.62863281 5.40335938 20.94476563 5.43171875 22.30078125 5.4609375 C26.44960473 4.94397745 28.05452037 3.88280985 31 1 C31.66 1.33 32.32 1.66 33 2 C26.68886716 7.35074306 23.41871467 8.68748816 15 8 C9.43586459 6.69449897 4.20345065 4.32494603 -1 2 C-0.67 1.34 -0.34 0.68 0 0 Z " fill="#3E80D2" transform="translate(61,151)"/>
<path d="M0 0 C0.33 0 0.66 0 1 0 C1.1953125 2.05078125 1.390625 4.1015625 1.5859375 6.15234375 C1.72257812 6.76207031 1.85921875 7.37179688 2 8 C2.66 8.33 3.32 8.66 4 9 C4.625 11.5625 4.625 11.5625 5 14 C4.01 14.66 3.02 15.32 2 16 C-0.14336161 12.5233662 -0.21277626 9.78770805 -0.125 5.75 C-0.10695313 4.67234375 -0.08890625 3.5946875 -0.0703125 2.484375 C-0.04710937 1.66453125 -0.02390625 0.8446875 0 0 Z M5 8 C12.59 8 20.18 8 28 8 C28 8.33 28 8.66 28 9 C20.74 9 13.48 9 6 9 C6.33 10.32 6.66 11.64 7 13 C6.34 13 5.68 13 5 13 C5 11.35 5 9.7 5 8 Z " fill="#58667A" transform="translate(391,158)"/>
<path d="M0 0 C0.33 0.66 0.66 1.32 1 2 C3.68660943 2.90050092 6.29144554 3.1669706 9.109375 3.31640625 C10.24052734 3.37924805 10.24052734 3.37924805 11.39453125 3.44335938 C12.56048828 3.50233398 12.56048828 3.50233398 13.75 3.5625 C14.93916016 3.62727539 14.93916016 3.62727539 16.15234375 3.69335938 C18.10137815 3.79902991 20.05066748 3.89997966 22 4 C22 4.66 22 5.32 22 6 C22.66 6.33 23.32 6.66 24 7 C21.08277452 7.08103404 18.16780484 7.14051081 15.25 7.1875 C14.0125 7.22520508 14.0125 7.22520508 12.75 7.26367188 C6.57281038 7.33839594 6.57281038 7.33839594 3.546875 5.55078125 C3.03640625 5.03902344 2.5259375 4.52726563 2 4 C1.34 3.67 0.68 3.34 0 3 C0 2.01 0 1.02 0 0 Z " fill="#202E41" transform="translate(296,159)"/>
<path d="M0 0 C0 1.65 0 3.3 0 5 C-2.88415883 6.44207941 -5.41721528 6.09394887 -8.625 6.0625 C-9.81351562 6.05347656 -11.00203125 6.04445312 -12.2265625 6.03515625 C-13.14179688 6.02355469 -14.05703125 6.01195312 -15 6 C-14.34375 4.078125 -14.34375 4.078125 -13 2 C-10.46875 1.171875 -10.46875 1.171875 -7.5 0.75 C-6.03046875 0.52570313 -6.03046875 0.52570313 -4.53125 0.296875 C-2 0 -2 0 0 0 Z " fill="#223149" transform="translate(322,174)"/>
<path d="M0 0 C0 1.98 0 3.96 0 6 C-4.62921525 7.0161692 -8.34462607 6.83796731 -13 6 C-13 4.66666667 -13 3.33333333 -13 2 C-11.20873548 1.66451233 -9.41697413 1.33167645 -7.625 1 C-6.62726563 0.814375 -5.62953125 0.62875 -4.6015625 0.4375 C-2 0 -2 0 0 0 Z " fill="#3A4651" transform="translate(151,173)"/>
<path d="M0 0 C3.28212246 0.43761633 4.84832931 1.52557871 7 4 C6.67 4.66 6.34 5.32 6 6 C6.66 6 7.32 6 8 6 C7.67 6.99 7.34 7.98 7 9 C4 10 4 10 2 10 C0.68 10.33 -0.64 10.66 -2 11 C-0.02 8.69 1.96 6.38 4 4 C3.67 4.33 3.34 4.66 3 5 C2.34 5 1.68 5 1 5 C0.67 5.66 0.34 6.32 0 7 C0 6.34 0 5.68 0 5 C-0.66 5 -1.32 5 -2 5 C-1.125 1.125 -1.125 1.125 0 0 Z " fill="#2986FB" transform="translate(64,164)"/>
<path d="M0 0 C12.66970387 -0.3690205 12.66970387 -0.3690205 18 2 C18 3.98 18 5.96 18 8 C10.575 7.01 10.575 7.01 3 6 C3 5.67 3 5.34 3 5 C5.64 4.67 8.28 4.34 11 4 C11 3.34 11 2.68 11 2 C7.37 1.67 3.74 1.34 0 1 C0 0.67 0 0.34 0 0 Z " fill="#565F78" transform="translate(133,138)"/>
<path d="M0 0 C0.3403125 0.9590625 0.3403125 0.9590625 0.6875 1.9375 C1.85250896 4.27193661 1.85250896 4.27193661 4.625 4.75 C5.40875 4.8325 6.1925 4.915 7 5 C7.33 4.34 7.66 3.68 8 3 C8 5.97 8 8.94 8 12 C7.34 12 6.68 12 6 12 C5.67 12.66 5.34 13.32 5 14 C5 13.01 5 12.02 5 11 C4.34 11 3.68 11 3 11 C2.67 11.66 2.34 12.32 2 13 C1.86722656 12.38511719 1.73445313 11.77023438 1.59765625 11.13671875 C1.42105469 10.32847656 1.24445313 9.52023438 1.0625 8.6875 C0.88847656 7.88699219 0.71445312 7.08648437 0.53515625 6.26171875 C0.00113841 3.854599 0.00113841 3.854599 -1 1 C-0.67 0.67 -0.34 0.34 0 0 Z " fill="#F9FCFC" transform="translate(322,152)"/>
<path d="M0 0 C8.57142857 0.71428571 8.57142857 0.71428571 12 4 C11.09507812 4.16435547 11.09507812 4.16435547 10.171875 4.33203125 C4.06315013 5.50797128 4.06315013 5.50797128 -1 9 C-1.125 2.25 -1.125 2.25 0 0 Z M8 0 C10 1 10 1 10 1 Z " fill="#EAEEF1" transform="translate(197,144)"/>
<path d="M0 0 C1.65 0 3.3 0 5 0 C5 2.31 5 4.62 5 7 C2.03 6.505 2.03 6.505 -1 6 C-1 5.34 -1 4.68 -1 4 C-6.61 4 -12.22 4 -18 4 C-18 3.67 -18 3.34 -18 3 C-12.39 3 -6.78 3 -1 3 C-0.67 2.01 -0.34 1.02 0 0 Z " fill="#364559" transform="translate(319,159)"/>
<path d="M0 0 C1.33333333 0 2.66666667 0 4 0 C4.05416188 1.60379341 4.09286638 3.20811406 4.125 4.8125 C4.14820313 5.70582031 4.17140625 6.59914062 4.1953125 7.51953125 C4 10 4 10 2 13 C1.34 13 0.68 13 0 13 C-0.94738023 10.15785932 -1.13460559 8.32391609 -1.125 5.375 C-1.12757813 4.57835937 -1.13015625 3.78171875 -1.1328125 2.9609375 C-1 1 -1 1 0 0 Z " fill="#24354B" transform="translate(156,159)"/>
<path d="M0 0 C1.5 1.375 1.5 1.375 3 3 C3 3.66 3 4.32 3 5 C4.32 5.66 5.64 6.32 7 7 C4.50754779 9.75950066 2.79699009 11.62030099 -1 12 C-1.66 11.67 -2.32 11.34 -3 11 C-3 9.35 -3 7.7 -3 6 C-0.525 6.495 -0.525 6.495 2 7 C1.484375 6.5875 0.96875 6.175 0.4375 5.75 C-0.036875 5.1725 -0.51125 4.595 -1 4 C-0.6875 1.8125 -0.6875 1.8125 0 0 Z " fill="#F8F6F4" transform="translate(392,172)"/>
<path d="M0 0 C3.63 0.66 7.26 1.32 11 2 C10.01 2.66 9.02 3.32 8 4 C10.97 4.495 10.97 4.495 14 5 C14 5.33 14 5.66 14 6 C11.87561661 6.08078641 9.7503677 6.13909141 7.625 6.1875 C6.44164062 6.22230469 5.25828125 6.25710937 4.0390625 6.29296875 C2.53472656 6.14794922 2.53472656 6.14794922 1 6 C0.34 5.01 -0.32 4.02 -1 3 C-0.67 2.01 -0.34 1.02 0 0 Z " fill="#1F2C46" transform="translate(131,174)"/>
<path d="M0 0 C0.33 0 0.66 0 1 0 C1.36398622 2.08164018 1.71583287 4.16540562 2.0625 6.25 C2.25972656 7.41015625 2.45695313 8.5703125 2.66015625 9.765625 C2.9606216 12.62522624 2.9439206 14.33325929 2 17 C0.33333333 17 -1.33333333 17 -3 17 C-3.33 15.02 -3.66 13.04 -4 11 C-3.01 10.34 -2.02 9.68 -1 9 C-0.42006301 6.80545319 -0.42006301 6.80545319 -0.3125 4.375 C-0.21388672 3.14910156 -0.21388672 3.14910156 -0.11328125 1.8984375 C-0.05720703 0.95871094 -0.05720703 0.95871094 0 0 Z " fill="#F3F8F9" transform="translate(154,161)"/>
<path d="M0 0 C0.8971875 0.309375 0.8971875 0.309375 1.8125 0.625 C1.1525 1.285 0.4925 1.945 -0.1875 2.625 C-0.1875 3.945 -0.1875 5.265 -0.1875 6.625 C-2.1675 7.285 -4.1475 7.945 -6.1875 8.625 C-6.1875 10.605 -6.1875 12.585 -6.1875 14.625 C-7.1775 15.12 -7.1775 15.12 -8.1875 15.625 C-8.75457317 5.9847561 -8.75457317 5.9847561 -5.1875 1.625 C-2.1875 -0.375 -2.1875 -0.375 0 0 Z " fill="#E9F1F4" transform="translate(376.1875,153.375)"/>
<path d="M0 0 C1.65 0 3.3 0 5 0 C5 3.3 5 6.6 5 10 C4.34 10 3.68 10 3 10 C3 13.63 3 17.26 3 21 C2.34 21 1.68 21 1 21 C1.00523682 20.42967041 1.01047363 19.85934082 1.01586914 19.27172852 C1.03658221 16.70199677 1.0496419 14.13228253 1.0625 11.5625 C1.07087891 10.66466797 1.07925781 9.76683594 1.08789062 8.84179688 C1.09111328 7.98779297 1.09433594 7.13378906 1.09765625 6.25390625 C1.10289307 5.46314697 1.10812988 4.6723877 1.11352539 3.85766602 C1.20495909 1.98407311 1.20495909 1.98407311 0 1 C0 0.67 0 0.34 0 0 Z " fill="#324459" transform="translate(284,148)"/>
<path d="M0 0 C5.23175837 -0.38281159 8.37802694 0.78145293 13 3 C12.34 4.32 11.68 5.64 11 7 C9 6 9 6 8 5 C7.01 5.33 6.02 5.66 5 6 C2.8125 5.0625 2.8125 5.0625 1 4 C1 3.34 1 2.68 1 2 C0.67 1.34 0.34 0.68 0 0 Z " fill="#F1F7F2" transform="translate(80,177)"/>
<path d="M0 0 C0.33 0 0.66 0 1 0 C1.33 3.96 1.66 7.92 2 12 C1.34 12 0.68 12 0 12 C0.66 12.66 1.32 13.32 2 14 C1.01 14.495 1.01 14.495 0 15 C-0.99 14.34 -1.98 13.68 -3 13 C-2.88490339 11.58249437 -2.75746342 10.16598831 -2.625 8.75 C-2.55539063 7.96109375 -2.48578125 7.1721875 -2.4140625 6.359375 C-1.98492887 3.914123 -1.21399362 2.15163097 0 0 Z " fill="#233252" transform="translate(123,156)"/>
<path d="M0 0 C4.84659077 0.59104765 8.60748167 1.97944157 13 4 C9.33572029 5.35714063 7.49363912 4.52286834 4 3 C3.01 3 2.02 3 1 3 C0.66376204 4.2909136 0.33110751 5.58276097 0 6.875 C-0.185625 7.59429687 -0.37125 8.31359375 -0.5625 9.0546875 C-1.07313965 10.99289317 -1.07313965 10.99289317 -1 13 C-1.99 12.67 -2.98 12.34 -4 12 C-3.45660208 7.43545749 -2.20536179 4.0271824 0 0 Z " fill="#27579E" transform="translate(61,139)"/>
<path d="M0 0 C2.64 0 5.28 0 8 0 C8 0.66 8 1.32 8 2 C8.99 2.33 9.98 2.66 11 3 C7.14243493 5.15305957 4.44870215 6.39253254 0 6 C-0.33 4.68 -0.66 3.36 -1 2 C0.134375 2.020625 1.26875 2.04125 2.4375 2.0625 C5.81575674 2.41577477 5.81575674 2.41577477 7 1 C4.69 1 2.38 1 0 1 C0 0.67 0 0.34 0 0 Z " fill="#465269" transform="translate(271,175)"/>
<path d="M0 0 C3.1875 -0.3125 3.1875 -0.3125 6 0 C4.68775452 3.93673644 3.08089673 6.22719294 0 9 C-2 7 -2 7 -3 5 C-1.9375 2.375 -1.9375 2.375 0 0 Z " fill="#2F3F56" transform="translate(158,153)"/>
<path d="M0 0 C0.66 0.33 1.32 0.66 2 1 C2 1.99 2 2.98 2 4 C2.99 3.67 3.98 3.34 5 3 C6.125 6.75 6.125 6.75 5 9 C4.34 9 3.68 9 3 9 C2.67 10.98 2.34 12.96 2 15 C1.67 15 1.34 15 1 15 C0.63911385 12.68853911 0.28645809 10.37579171 -0.0625 8.0625 C-0.25972656 6.77472656 -0.45695312 5.48695313 -0.66015625 4.16015625 C-0.82837891 2.59587891 -0.82837891 2.59587891 -1 1 C-0.67 0.67 -0.34 0.34 0 0 Z " fill="#E6F0F2" transform="translate(418,152)"/>
<path d="M0 0 C0.33 0 0.66 0 1 0 C2.125 5.75 2.125 5.75 1 8 C-0.8125 8.75 -0.8125 8.75 -3 9 C-5.25 8.0625 -5.25 8.0625 -7 7 C-7 6.34 -7 5.68 -7 5 C-5.5459375 4.5978125 -5.5459375 4.5978125 -4.0625 4.1875 C-3.051875 3.795625 -2.04125 3.40375 -1 3 C-0.67 2.01 -0.34 1.02 0 0 Z " fill="#E1EBEA" transform="translate(283,175)"/>
<path d="M0 0 C-0.33 1.65 -0.66 3.3 -1 5 C-4.63 5 -8.26 5 -12 5 C-10.68 4.67 -9.36 4.34 -8 4 C-8 3.34 -8 2.68 -8 2 C-8.66 1.67 -9.32 1.34 -10 1 C-2.25 0 -2.25 0 0 0 Z " fill="#212F49" transform="translate(386,175)"/>
<path d="M0 0 C0 1.65 0 3.3 0 5 C-2.3125 5.6875 -2.3125 5.6875 -5 6 C-6.02196992 5.02246356 -7.01979625 4.0194119 -8 3 C-11.10839021 2.2730774 -11.10839021 2.2730774 -14 2 C-14 1.67 -14 1.34 -14 1 C-4.58997722 -0.14806378 -4.58997722 -0.14806378 0 0 Z " fill="#4E5968" transform="translate(418,174)"/>
<path d="M0 0 C2.3125 0.27734375 2.3125 0.27734375 5 0.9375 C8.60050423 2.00380448 8.60050423 2.00380448 12 1 C14.125 1.9375 14.125 1.9375 16 3 C13.02958551 4.48520725 10.30235553 4.1705822 7 4.1875 C5.1128125 4.20876953 5.1128125 4.20876953 3.1875 4.23046875 C0 4 0 4 -2 2 C-1.34 1.34 -0.68 0.68 0 0 Z " fill="#E1E8ED" transform="translate(306,171)"/>
<path d="M0 0 C1.32 0.66 2.64 1.32 4 2 C1.54993342 7.75765646 1.54993342 7.75765646 -0.84375 8.8125 C-3.57059038 9.04961655 -4.86893135 8.37208776 -7.25 7.0625 C-7.95640625 6.68222656 -8.6628125 6.30195313 -9.390625 5.91015625 C-9.92171875 5.60980469 -10.4528125 5.30945313 -11 5 C-11 4.34 -11 3.68 -11 3 C-8.03824877 3.61277612 -6.61941217 4.25372522 -4 6 C-3.01 6 -2.02 6 -1 6 C-0.67 4.02 -0.34 2.04 0 0 Z " fill="#195DBB" transform="translate(91,170)"/>
<path d="M0 0 C0.98484375 0.11085937 1.9696875 0.22171875 2.984375 0.3359375 C3.73203125 0.43132812 4.4796875 0.52671875 5.25 0.625 C5.25 1.285 5.25 1.945 5.25 2.625 C7.23 2.625 9.21 2.625 11.25 2.625 C11.58 3.945 11.91 5.265 12.25 6.625 C6.25 4.625 6.25 4.625 3.5 3.5625 C-0.87422745 2.30070362 -5.22251372 1.96500885 -9.75 1.625 C-6.30824478 -0.52199969 -3.9779708 -0.47356795 0 0 Z " fill="#B2DAF7" transform="translate(79.75,158.375)"/>
<path d="M0 0 C7.4422658 -0.36601307 7.4422658 -0.36601307 10 1.3125 C11 3 11 3 11 6 C10.01 6.33 9.02 6.66 8 7 C7.67 6.01 7.34 5.02 7 4 C6.01 3.67 5.02 3.34 4 3 C4 3.66 4 4.32 4 5 C3.01 4.67 2.02 4.34 1 4 C1.33 3.01 1.66 2.02 2 1 C1.34 0.67 0.68 0.34 0 0 Z " fill="#EBF5F6" transform="translate(201,153)"/>
<path d="M0 0 C1.22589844 0.01353516 1.22589844 0.01353516 2.4765625 0.02734375 C3.41628906 0.04474609 3.41628906 0.04474609 4.375 0.0625 C4.375 0.7225 4.375 1.3825 4.375 2.0625 C2.7971875 2.000625 2.7971875 2.000625 1.1875 1.9375 C-2.43829224 2.05637843 -4.53857829 2.21064697 -7.625 4.0625 C-8.98578035 6.58622901 -8.98578035 6.58622901 -9.625 9.0625 C-12.1 8.0725 -12.1 8.0725 -14.625 7.0625 C-14.625 6.7325 -14.625 6.4025 -14.625 6.0625 C-13.820625 5.93875 -13.01625 5.815 -12.1875 5.6875 C-11.341875 5.48125 -10.49625 5.275 -9.625 5.0625 C-9.295 4.4025 -8.965 3.7425 -8.625 3.0625 C-7.965 3.0625 -7.305 3.0625 -6.625 3.0625 C-6.625 2.4025 -6.625 1.7425 -6.625 1.0625 C-4.21954362 -0.14022819 -2.67503047 -0.03821472 0 0 Z " fill="#4280C8" transform="translate(75.625,171.9375)"/>
<path d="M0 0 C0.66 0 1.32 0 2 0 C2.05429959 1.74965358 2.09292823 3.49979787 2.125 5.25 C2.14820313 6.22453125 2.17140625 7.1990625 2.1953125 8.203125 C1.99862781 11.0196498 1.44568916 12.60949036 0 15 C-0.66 14.67 -1.32 14.34 -2 14 C-2.625 11.4375 -2.625 11.4375 -3 9 C-2.01 9 -1.02 9 0 9 C-0.185625 8.443125 -0.37125 7.88625 -0.5625 7.3125 C-1.07551165 4.600867 -0.6640724 2.65628961 0 0 Z " fill="#243447" transform="translate(182,159)"/>
<path d="M0 0 C3.39914975 1.13304992 4.05254451 2.12518475 6 5 C5.34 5 4.68 5 4 5 C4 5.66 4 6.32 4 7 C2.8125 8.6875 2.8125 8.6875 1 10 C-1.625 9.8125 -1.625 9.8125 -4 9 C-4.33 8.34 -4.66 7.68 -5 7 C-3.68 6.67 -2.36 6.34 -1 6 C-0.67 4.02 -0.34 2.04 0 0 Z " fill="#F3F9FA" transform="translate(61,153)"/>
<path d="M0 0 C3.3 0.33 6.6 0.66 10 1 C7.82615436 3.17384564 5.68729526 4.52198761 3 6 C2.34 6 1.68 6 1 6 C1 5.34 1 4.68 1 4 C0.34 4 -0.32 4 -1 4 C-0.67 2.68 -0.34 1.36 0 0 Z " fill="#2578EE" transform="translate(71,166)"/>
<path d="M0 0 C2.31 0 4.62 0 7 0 C6.40072174 3.35595828 5.15377564 5.37801226 3 8 C1.02 7.01 -0.96 6.02 -3 5 C-1.68 4.67 -0.36 4.34 1 4 C0.67 3.67 0.34 3.34 0 3 C0 2.01 0 1.02 0 0 Z " fill="#E4E9E6" transform="translate(176,144)"/>
<path d="M0 0 C1.32 0.33 2.64 0.66 4 1 C1.12537764 5.18126888 1.12537764 5.18126888 -1 7 C-4.6875 7.5 -4.6875 7.5 -8 7 C-8.66 6.34 -9.32 5.68 -10 5 C-4.375 3.875 -4.375 3.875 -1 5 C-0.67 3.35 -0.34 1.7 0 0 Z " fill="#DAF2FA" transform="translate(84,138)"/>
<path d="M0 0 C0.66 0 1.32 0 2 0 C4.32590854 3.63423209 4.16265833 6.77088331 4 11 C3.67 9.68 3.34 8.36 3 7 C1.68 7.33 0.36 7.66 -1 8 C-1.66 6.02 -2.32 4.04 -3 2 C-2.34 2 -1.68 2 -1 2 C-0.67 1.34 -0.34 0.68 0 0 Z " fill="#28374B" transform="translate(319,152)"/>
<path d="M0 0 C-0.66 1.65 -1.32 3.3 -2 5 C-1.34 5.33 -0.68 5.66 0 6 C-2.72949845 6.90983282 -4.22134249 7 -7 7 C-7 7.66 -7 8.32 -7 9 C-7.99 9.33 -8.98 9.66 -10 10 C-8.71596412 5.50587442 -5.23012555 0 0 0 Z " fill="#E2EBF0" transform="translate(135,144)"/>
<path d="M0 0 C5.61 0.66 11.22 1.32 17 2 C17 2.33 17 2.66 17 3 C13.37 3 9.74 3 6 3 C6 3.99 6 4.98 6 6 C3.5625 5.25 3.5625 5.25 1 4 C0.67 2.68 0.34 1.36 0 0 Z " fill="#DCE4E5" transform="translate(127,178)"/>
<path d="M0 0 C1.33333333 0.33333333 2.66666667 0.66666667 4 1 C5.0828125 1.185625 5.0828125 1.185625 6.1875 1.375 C7.0846875 1.684375 7.0846875 1.684375 8 2 C8.33 2.99 8.66 3.98 9 5 C11.01508358 5.73323796 11.01508358 5.73323796 13 6 C12.67 6.66 12.34 7.32 12 8 C10.205625 7.2884375 10.205625 7.2884375 8.375 6.5625 C4.93585762 5.26517227 1.66104396 4.45763049 -2 4 C-1.34 2.68 -0.68 1.36 0 0 Z " fill="#0F70E3" transform="translate(76,168)"/>
<path d="M0 0 C0.66 0.99 1.32 1.98 2 3 C1.67 3.99 1.34 4.98 1 6 C3.475 6.99 3.475 6.99 6 8 C6 8.99 6 9.98 6 11 C3.625 10.6875 3.625 10.6875 1 10 C-1.56687367 6.1496895 -0.83288724 4.41430237 0 0 Z " fill="#DDF3FD" transform="translate(54,169)"/>
<path d="M0 0 C1.32 0.66 2.64 1.32 4 2 C3.25 6.75 3.25 6.75 1 9 C0.62875 8.1028125 0.62875 8.1028125 0.25 7.1875 C-1.16370012 4.71352479 -2.65055383 3.56629745 -5 2 C-3.35 2 -1.7 2 0 2 C0 1.34 0 0.68 0 0 Z " fill="#DCE9F5" transform="translate(97,163)"/>
<path d="M0 0 C7.12600133 -0.35368021 12.47059106 0.04328652 19 3 C12.55066264 4.90191102 6.22775634 2.94617386 0 1 C0 0.67 0 0.34 0 0 Z " fill="#2874D1" transform="translate(69,160)"/>
<path d="M0 0 C1.65 0 3.3 0 5 0 C5 0.66 5 1.32 5 2 C6.9600281 3.63676257 6.9600281 3.63676257 9 5 C7.02 5.99 5.04 6.98 3 8 C2.34 7.34 1.68 6.68 1 6 C1.66 6 2.32 6 3 6 C3 5.34 3 4.68 3 4 C2.01 3.67 1.02 3.34 0 3 C0 2.01 0 1.02 0 0 Z " fill="#E9F2F5" transform="translate(296,144)"/>
<path d="M0 0 C3.99455527 0.61454696 6.74466336 2.70646737 10 5 C8.68 5.33 7.36 5.66 6 6 C6 5.34 6 4.68 6 4 C3.69 3.67 1.38 3.34 -1 3 C-1.66 4.32 -2.32 5.64 -3 7 C-3.66 6.67 -4.32 6.34 -5 6 C-3.35 4.02 -1.7 2.04 0 0 Z " fill="#4481C5" transform="translate(88,138)"/>
<path d="M0 0 C0.99 0.99 1.98 1.98 3 3 C3.99 3 4.98 3 6 3 C5.319375 4.051875 5.319375 4.051875 4.625 5.125 C2.98313057 8.02984591 1.96322901 10.8139348 1 14 C0.67 14 0.34 14 0 14 C0 9.38 0 4.76 0 0 Z " fill="#2D3D54" transform="translate(119,152)"/>
<path d="M0 0 C0 0.33 0 0.66 0 1 C2.97 1.495 2.97 1.495 6 2 C6 2.33 6 2.66 6 3 C4.39796533 3.36368892 2.79325797 3.71561952 1.1875 4.0625 C0.29417969 4.25972656 -0.59914063 4.45695313 -1.51953125 4.66015625 C-4 5 -4 5 -7 4 C-7 3.01 -7 2.02 -7 1 C-4.53721199 -0.231394 -2.7204945 -0.07159196 0 0 Z " fill="#21324A" transform="translate(376,149)"/>
<path d="M0 0 C4.98862849 -0.29344873 7.96229058 -0.05887078 12 3 C12 3.33 12 3.66 12 4 C8.7 4 5.4 4 2 4 C1.34 2.68 0.68 1.36 0 0 Z " fill="#EBEFF4" transform="translate(268,171)"/>
<path d="M0 0 C2.31 0 4.62 0 7 0 C6.01 0.33 5.02 0.66 4 1 C4.66 2.32 5.32 3.64 6 5 C4.02 5.99 2.04 6.98 0 8 C-0.33 6.35 -0.66 4.7 -1 3 C-0.34 2.67 0.32 2.34 1 2 C0.67 1.34 0.34 0.68 0 0 Z " fill="#ECEEF0" transform="translate(336,144)"/>
<path d="M0 0 C0.66 0 1.32 0 2 0 C2 0.66 2 1.32 2 2 C3.65 2 5.3 2 7 2 C5.90931332 5.77545388 5.0916909 8.47043472 2 11 C1.34 9.35 0.68 7.7 0 6 C0.639375 5.87625 1.27875 5.7525 1.9375 5.625 C2.618125 5.41875 3.29875 5.2125 4 5 C4.33 4.34 4.66 3.68 5 3 C3.35 3.33 1.7 3.66 0 4 C0 2.68 0 1.36 0 0 Z " fill="#3286E0" transform="translate(92,142)"/>
<path d="M0 0 C0.99 0.33 1.98 0.66 3 1 C3.875 2.875 3.875 2.875 4 5 C2.6875 6.75 2.6875 6.75 1 8 C0.34 8 -0.32 8 -1 8 C-1.625 5.6875 -1.625 5.6875 -2 3 C-1.34 2.01 -0.68 1.02 0 0 Z " fill="#2D3E50" transform="translate(230,137)"/>
<path d="M0 0 C2.64 0 5.28 0 8 0 C7.67 1.32 7.34 2.64 7 4 C5.02 4 3.04 4 1 4 C0.67 2.68 0.34 1.36 0 0 Z " fill="#FBFEEE" transform="translate(88,186)"/>
<path d="M0 0 C2.80362763 -0.22732116 4.46186517 -0.34081872 6.875 1.1875 C8 3 8 3 7.6875 5.6875 C7.460625 6.450625 7.23375 7.21375 7 8 C6.01 8 5.02 8 4 8 C3.896875 7.236875 3.79375 6.47375 3.6875 5.6875 C2.95635961 2.82940576 2.23048087 1.84257115 0 0 Z " fill="#D1EBF9" transform="translate(94,140)"/>
<path d="M0 0 C2.97 0 5.94 0 9 0 C9 1.32 9 2.64 9 4 C6.36 4 3.72 4 1 4 C1.99 3.67 2.98 3.34 4 3 C4 2.34 4 1.68 4 1 C2.68 0.67 1.36 0.34 0 0 Z " fill="#222E4B" transform="translate(135,139)"/>
<path d="M0 0 C5.5 -0.36666667 5.5 -0.36666667 7.875 1.375 C9 3 9 3 9 5 C6.03 4.67 3.06 4.34 0 4 C0 2.66666667 0 1.33333333 0 0 Z " fill="#313D5A" transform="translate(138,175)"/>
<path d="M0 0 C0.88935377 3.303314 1.46274105 6.62294375 2 10 C0.68 9.67 -0.64 9.34 -2 9 C-2.6875 7.3125 -2.6875 7.3125 -3 5 C-1.5625 2.25 -1.5625 2.25 0 0 Z " fill="#2D3F5F" transform="translate(299,152)"/>
<path d="M0 0 C1.32 1.65 2.64 3.3 4 5 C3.34 5.66 2.68 6.32 2 7 C1.67 6.67 1.34 6.34 1 6 C0.01 7.485 0.01 7.485 -1 9 C-1.66 8.67 -2.32 8.34 -3 8 C-3 6.02 -3 4.04 -3 2 C-2.34 2 -1.68 2 -1 2 C-0.67 1.34 -0.34 0.68 0 0 Z " fill="#3D4C6A" transform="translate(335,149)"/>
<path d="M0 0 C0.66 0.33 1.32 0.66 2 1 C2 1.99 2 2.98 2 4 C2.99 4.33 3.98 4.66 5 5 C4.67 5.66 4.34 6.32 4 7 C3.34 6.67 2.68 6.34 2 6 C1.67 6.66 1.34 7.32 1 8 C0.54625 7.525625 0.0925 7.05125 -0.375 6.5625 C-1.93258204 4.90972192 -1.93258204 4.90972192 -4 4 C-4 3.34 -4 2.68 -4 2 C-2.125 0.9375 -2.125 0.9375 0 0 Z " fill="#E8EEF1" transform="translate(214,145)"/>
<path d="M0 0 C3.34373475 0.55728913 6.03312999 1.35173889 9 3 C9 3.66 9 4.32 9 5 C7.3125 5.8125 7.3125 5.8125 5 6 C2.25 3.625 2.25 3.625 0 1 C0 0.67 0 0.34 0 0 Z " fill="#EEF2F5" transform="translate(363,176)"/>
<path d="M0 0 C0 1.65 0 3.3 0 5 C-2.70879335 6.35439668 -5.00933268 6.06501451 -8 6 C-3.38461538 0 -3.38461538 0 0 0 Z " fill="#303C4E" transform="translate(322,174)"/>
<path d="M0 0 C0.66 0.99 1.32 1.98 2 3 C1.34 3 0.68 3 0 3 C-0.33 3.99 -0.66 4.98 -1 6 C-3.875 6.125 -3.875 6.125 -7 6 C-7.66 5.34 -8.32 4.68 -9 4 C-8.43410156 3.79503906 -7.86820313 3.59007812 -7.28515625 3.37890625 C-6.55167969 3.10949219 -5.81820312 2.84007812 -5.0625 2.5625 C-4.33160156 2.29566406 -3.60070313 2.02882812 -2.84765625 1.75390625 C-1.01694322 1.14613052 -1.01694322 1.14613052 0 0 Z " fill="#2D82E9" transform="translate(67,172)"/>
<path d="M0 0 C1.98 0 3.96 0 6 0 C7.33332095 2.6666419 6.67102033 4.16680303 6 7 C4.68 6.67 3.36 6.34 2 6 C1.855625 5.38125 1.71125 4.7625 1.5625 4.125 C1.06847775 1.96741678 1.06847775 1.96741678 0 0 Z " fill="#36445C" transform="translate(125,172)"/>
<path d="M0 0 C2 3 2 3 2 6 C-3.61 6 -9.22 6 -15 6 C-15 5.67 -15 5.34 -15 5 C-10.38 5 -5.76 5 -1 5 C-0.67 3.35 -0.34 1.7 0 0 Z " fill="#DEE5F6" transform="translate(412,156)"/>
<path d="M0 0 C0.7425 0.350625 1.485 0.70125 2.25 1.0625 C5.1322726 2.04509293 6.21176345 2.0326802 9 1 C9 1.66 9 2.32 9 3 C8.360625 3.12375 7.72125 3.2475 7.0625 3.375 C6.381875 3.58125 5.70125 3.7875 5 4 C4.67 4.66 4.34 5.32 4 6 C3.34 5.67 2.68 5.34 2 5 C1.34 5.66 0.68 6.32 0 7 C0 4.69 0 2.38 0 0 Z " fill="#EBECEF" transform="translate(390,147)"/>
<path d="M0 0 C5.61 0.33 11.22 0.66 17 1 C17 1.33 17 1.66 17 2 C16.08476562 2.06058594 15.16953125 2.12117187 14.2265625 2.18359375 C13.03804688 2.26738281 11.84953125 2.35117188 10.625 2.4375 C9.44164062 2.51871094 8.25828125 2.59992188 7.0390625 2.68359375 C4.08481099 2.81084936 4.08481099 2.81084936 2 4 C2 3.34 2 2.68 2 2 C1.34 2 0.68 2 0 2 C0 1.34 0 0.68 0 0 Z " fill="#D4DCDF" transform="translate(301,179)"/>
<path d="M0 0 C0.99 0 1.98 0 3 0 C3.33 2.64 3.66 5.28 4 8 C3.34 8 2.68 8 2 8 C1.67 8.66 1.34 9.32 1 10 C1 9.01 1 8.02 1 7 C-1.97 7 -4.94 7 -8 7 C-8 6.67 -8 6.34 -8 6 C-3.545 5.505 -3.545 5.505 1 5 C1.33 3.68 1.66 2.36 2 1 C1.34 0.67 0.68 0.34 0 0 Z " fill="#BCC4CC" transform="translate(384,174)"/>
<path d="M0 0 C2.97851562 0.1953125 2.97851562 0.1953125 5.95703125 0.390625 C5.62703125 1.380625 5.29703125 2.370625 4.95703125 3.390625 C1.65703125 3.720625 -1.64296875 4.050625 -5.04296875 4.390625 C-2.04296875 0.390625 -2.04296875 0.390625 0 0 Z " fill="#DEE7EC" transform="translate(167.04296875,152.609375)"/>
<path d="M0 0 C5.452999 1.56818272 9.76486783 3.03810217 14 7 C8.45949887 6.43174347 3.96284034 4.37113483 -1 2 C-0.67 1.34 -0.34 0.68 0 0 Z " fill="#3D6EC1" transform="translate(61,151)"/>
<path d="M0 0 C-0.33 0.66 -0.66 1.32 -1 2 C-3.0625 2.625 -3.0625 2.625 -5 3 C-5 4.65 -5 6.3 -5 8 C-5.99 7.34 -6.98 6.68 -8 6 C-7.75 3.625 -7.75 3.625 -7 1 C-4.12732844 -1.10662581 -3.46720491 -1.15573497 0 0 Z " fill="#045CD8" transform="translate(69,144)"/>
<path d="M0 0 C3.125 0.375 3.125 0.375 6 1 C6.33 1.99 6.66 2.98 7 4 C6.01 4.495 6.01 4.495 5 5 C2.64018187 4.06421005 0.30368736 3.06652192 -2 2 C-1.34 1.34 -0.68 0.68 0 0 Z " fill="#EDF2F4" transform="translate(265,179)"/>
<path d="M0 0 C2.31 0 4.62 0 7 0 C7 0.66 7 1.32 7 2 C8.32 2.33 9.64 2.66 11 3 C8.36 3.33 5.72 3.66 3 4 C2.01 2.68 1.02 1.36 0 0 Z " fill="#1A6EF8" transform="translate(69,153)"/>
<path d="M0 0 C2.475 0.495 2.475 0.495 5 1 C5 2.32 5 3.64 5 5 C3.35 5.33 1.7 5.66 0 6 C0 4.02 0 2.04 0 0 Z " fill="#1C85F6" transform="translate(87,141)"/>
<path d="M0 0 C0.99 0 1.98 0 3 0 C3 0.66 3 1.32 3 2 C3.66 2 4.32 2 5 2 C4.67 3.32 4.34 4.64 4 6 C2.0625 5.625 2.0625 5.625 0 5 C-0.33 4.34 -0.66 3.68 -1 3 C-0.67 2.01 -0.34 1.02 0 0 Z " fill="#293850" transform="translate(131,174)"/>
<path d="M0 0 C1.32 0.33 2.64 0.66 4 1 C4.33 3.31 4.66 5.62 5 8 C3.35 7.67 1.7 7.34 0 7 C0 4.69 0 2.38 0 0 Z " fill="#1E3246" transform="translate(363,161)"/>
<path d="M0 0 C0 0.99 0 1.98 0 3 C-2.31 3.66 -4.62 4.32 -7 5 C-7 3.68 -7 2.36 -7 1 C-4.53721199 -0.231394 -2.7204945 -0.07159196 0 0 Z " fill="#263244" transform="translate(345,149)"/>
<path d="M0 0 C1.32 0 2.64 0 4 0 C4 1.98 4 3.96 4 6 C1.525 5.01 1.525 5.01 -1 4 C-0.67 2.68 -0.34 1.36 0 0 Z " fill="#3E475A" transform="translate(147,140)"/>
<path d="M0 0 C2.97 0 5.94 0 9 0 C9 0.99 9 1.98 9 3 C6.03 2.67 3.06 2.34 0 2 C0 1.34 0 0.68 0 0 Z " fill="#455265" transform="translate(163,178)"/>
<path d="M0 0 C0.33 0.99 0.66 1.98 1 3 C0.34 3 -0.32 3 -1 3 C-1 3.66 -1 4.32 -1 5 C-7.93 4.505 -7.93 4.505 -15 4 C-15 3.67 -15 3.34 -15 3 C-10.05 2.67 -5.1 2.34 0 2 C0 1.34 0 0.68 0 0 Z " fill="#D4DADD" transform="translate(419,177)"/>
<path d="M0 0 C3 3 6 6 9 9 C6.35175278 8.64212875 4.44464124 8.31760089 2.25 6.75 C0.68239911 4.55535876 0.35787125 2.64824722 0 0 Z " fill="#E2EAF3" transform="translate(160,166)"/>
<path d="M0 0 C0.66 0.33 1.32 0.66 2 1 C2 4 2 4 1 6 C-1.64 6 -4.28 6 -7 6 C-6.21625 5.38125 -5.4325 4.7625 -4.625 4.125 C-2.03162353 2.10141339 -2.03162353 2.10141339 0 0 Z " fill="#DEECFA" transform="translate(93,153)"/>
<path d="M0 0 C5.75 0.875 5.75 0.875 8 2 C7.67 2.99 7.34 3.98 7 5 C4.36 4.01 1.72 3.02 -1 2 C-0.67 1.34 -0.34 0.68 0 0 Z " fill="#E6F7FC" transform="translate(89,136)"/>
<path d="M0 0 C-3.36423277 2.96052484 -6.69159287 3.92289822 -11 5 C-10.625 3.0625 -10.625 3.0625 -10 1 C-6.78548731 -0.60725635 -3.56387464 -0.05748185 0 0 Z " fill="#3E4E65" transform="translate(316,175)"/>
<path d="M0 0 C2.31 0.66 4.62 1.32 7 2 C5 4 5 4 2.375 4.125 C1.59125 4.08375 0.8075 4.0425 0 4 C0 2.68 0 1.36 0 0 Z " fill="#E4E9EB" transform="translate(253,171)"/>
<path d="M0 0 C-0.33 0.99 -0.66 1.98 -1 3 C-0.67 3.99 -0.34 4.98 0 6 C-3.65316671 4.75023244 -4.78065836 4.32901247 -7 1 C-4.53721199 -0.231394 -2.7204945 -0.07159196 0 0 Z " fill="#E4EBEF" transform="translate(134,168)"/>
<path d="M0 0 C1.5 1.375 1.5 1.375 3 3 C3 3.66 3 4.32 3 5 C4.32 5.66 5.64 6.32 7 7 C6.01 7.495 6.01 7.495 5 8 C2.96855359 7.06553465 0.96466413 6.06775224 -1 5 C-0.67 3.35 -0.34 1.7 0 0 Z " fill="#DFE8EC" transform="translate(392,172)"/>
<path d="M0 0 C0.33 0 0.66 0 1 0 C1.66 4.29 2.32 8.58 3 13 C2.01 12.67 1.02 12.34 0 12 C-1.16063604 7.74433453 -0.76173392 4.3164922 0 0 Z " fill="#DCE4EB" transform="translate(154,161)"/>
<path d="M0 0 C1.65 0 3.3 0 5 0 C5 1.32 5 2.64 5 4 C3.02 4 1.04 4 -1 4 C-0.67 2.68 -0.34 1.36 0 0 Z " fill="#222B3F" transform="translate(235,149)"/>
<path d="M0 0 C3.3 0 6.6 0 10 0 C10 0.66 10 1.32 10 2 C7.36 2.33 4.72 2.66 2 3 C1.34 2.01 0.68 1.02 0 0 Z " fill="#1775FA" transform="translate(73,147)"/>
<path d="M0 0 C2.31 0.66 4.62 1.32 7 2 C6.34 3.32 5.68 4.64 5 6 C4.34 5.67 3.68 5.34 3 5 C3 4.34 3 3.68 3 3 C2.01 2.67 1.02 2.34 0 2 C0 1.34 0 0.68 0 0 Z " fill="#DEF2FE" transform="translate(86,178)"/>
<path d="M0 0 C4.75 0.875 4.75 0.875 7 2 C6.67 2.66 6.34 3.32 6 4 C3 4 3 4 0 3 C0 2.01 0 1.02 0 0 Z " fill="#E2ECF3" transform="translate(344,153)"/>
<path d="M0 0 C0.33 0.66 0.66 1.32 1 2 C1.66 2 2.32 2 3 2 C2.67 2.99 2.34 3.98 2 5 C1.46375 4.690625 0.9275 4.38125 0.375 4.0625 C-2.3984957 2.82172561 -5.00042837 2.4090325 -8 2 C-8 1.67 -8 1.34 -8 1 C-5.36 0.67 -2.72 0.34 0 0 Z " fill="#404F61" transform="translate(175,151)"/>
<path d="M0 0 C-0.33 0.99 -0.66 1.98 -1 3 C-3.94389782 4.17755913 -4.89953913 4.03348696 -8 3 C-8 2.34 -8 1.68 -8 1 C-5.23735711 0.40267181 -2.83967231 0 0 0 Z " fill="#2E7DE3" transform="translate(85,150)"/>
<path d="M0 0 C0.99 0 1.98 0 3 0 C3 1.32 3 2.64 3 4 C-0.3 4 -3.6 4 -7 4 C-7 3.67 -7 3.34 -7 3 C-5.5459375 2.814375 -5.5459375 2.814375 -4.0625 2.625 C-2.5465625 2.315625 -2.5465625 2.315625 -1 2 C-0.67 1.34 -0.34 0.68 0 0 Z " fill="#293D4F" transform="translate(383,149)"/>
<path d="M0 0 C3.3 0 6.6 0 10 0 C10 0.33 10 0.66 10 1 C8.35 1 6.7 1 5 1 C5 1.66 5 2.32 5 3 C5.99 3.33 6.98 3.66 8 4 C5.03 3.505 5.03 3.505 2 3 C2 2.34 2 1.68 2 1 C1.34 0.67 0.68 0.34 0 0 Z " fill="#1A74DF" transform="translate(72,150)"/>
<path d="M0 0 C1.65 0 3.3 0 5 0 C4.34 1.32 3.68 2.64 3 4 C2.34 4 1.68 4 1 4 C0.67 5.32 0.34 6.64 0 8 C0 5.36 0 2.72 0 0 Z " fill="#404A65" transform="translate(191,148)"/>
<path d="M0 0 C0 0.66 0 1.32 0 2 C-3.98853276 3.23782051 -6.06796105 2.31067965 -10 1 C-6.21812119 -0.83691257 -4.05431692 -1.15837626 0 0 Z " fill="#1F3346" transform="translate(414,150)"/>
<path d="M0 0 C0.99 0 1.98 0 3 0 C2.67 1.65 2.34 3.3 2 5 C-0.9375 4.625 -0.9375 4.625 -4 4 C-4.33 3.34 -4.66 2.68 -5 2 C-2.525 2.495 -2.525 2.495 0 3 C0 2.01 0 1.02 0 0 Z " fill="#FAFCFD" transform="translate(409,156)"/>
<path d="M0 0 C0.66 1.32 1.32 2.64 2 4 C2.66 4 3.32 4 4 4 C4 5.65 4 7.3 4 9 C3.01 9.495 3.01 9.495 2 10 C1.01 7.03 0.02 4.06 -1 1 C-0.67 0.67 -0.34 0.34 0 0 Z " fill="#E7F0F4" transform="translate(322,152)"/>
<path d="M0 0 C2 1.3125 2 1.3125 4 3 C4 3.99 4 4.98 4 6 C3.01 6.33 2.02 6.66 1 7 C-0.0625 4.625 -0.0625 4.625 -1 2 C-0.67 1.34 -0.34 0.68 0 0 Z " fill="#E2E4EE" transform="translate(208,153)"/>
<path d="M0 0 C5.75 -0.125 5.75 -0.125 8 1 C8 1.66 8 2.32 8 3 C5.69 3 3.38 3 1 3 C0.67 2.01 0.34 1.02 0 0 Z " fill="#202F50" transform="translate(304,149)"/>
<path d="M0 0 C0.33 0 0.66 0 1 0 C1 2.97 1 5.94 1 9 C0.01 9 -0.98 9 -2 9 C-2.33 7.68 -2.66 6.36 -3 5 C-2.01 5.33 -1.02 5.66 0 6 C0 4.02 0 2.04 0 0 Z " fill="#DAE0E0" transform="translate(118,155)"/>
<path d="M0 0 C0.625 1.875 0.625 1.875 1 4 C0.34 4.66 -0.32 5.32 -1 6 C-1.33 5.01 -1.66 4.02 -2 3 C-2.66 3 -3.32 3 -4 3 C-4.33 3.66 -4.66 4.32 -5 5 C-5 4.01 -5 3.02 -5 2 C-2 0 -2 0 0 0 Z " fill="#485565" transform="translate(354,150)"/>
<path d="M0 0 C2.64 0.66 5.28 1.32 8 2 C8 2.99 8 3.98 8 5 C2.25 3.125 2.25 3.125 0 2 C0 1.34 0 0.68 0 0 Z " fill="#CEEAFB" transform="translate(65,138)"/>
<path d="M0 0 C0.99 0.66 1.98 1.32 3 2 C3 2.66 3 3.32 3 4 C2.34 4 1.68 4 1 4 C0.67 4.66 0.34 5.32 0 6 C-0.66 4.68 -1.32 3.36 -2 2 C-1.34 1.34 -0.68 0.68 0 0 Z " fill="#2788F7" transform="translate(60,168)"/>
<path d="M0 0 C2.625 0.9375 2.625 0.9375 5 2 C5 2.66 5 3.32 5 4 C3.35 4 1.7 4 0 4 C0 3.34 0 2.68 0 2 C-0.66 1.67 -1.32 1.34 -2 1 C-1.34 0.67 -0.68 0.34 0 0 Z " fill="#0B71E7" transform="translate(82,163)"/>
<path d="M0 0 C-0.33 0.66 -0.66 1.32 -1 2 C-3.31 2 -5.62 2 -8 2 C-8 1.34 -8 0.68 -8 0 C-4.71303767 -0.79953138 -3.28976808 -1.09658936 0 0 Z " fill="#F7FBF3" transform="translate(93,159)"/>
<path d="M0 0 C2.31 0 4.62 0 7 0 C7.33 0.99 7.66 1.98 8 3 C5.36 2.67 2.72 2.34 0 2 C0 1.34 0 0.68 0 0 Z " fill="#F7FBED" transform="translate(380,144)"/>
</svg>
